G04 #@! TF.FileFunction,Legend,Top*
%FSLAX46Y46*%
G04 Gerber Fmt 4.6, Leading zero omitted, Abs format (unit mm)*
G04 Created by KiCad (PCBNEW 4.0.7-e2-6376~58~ubuntu16.04.1) date Thu Mar 22 00:24:48 2018*
%MOMM*%
%LPD*%
G01*
G04 APERTURE LIST*
%ADD10C,0.100000*%
%ADD11C,0.300000*%
%ADD12C,0.200000*%
%ADD13C,0.150000*%
%ADD14C,0.120000*%
%ADD15C,0.010000*%
G04 APERTURE END LIST*
D10*
D11*
X185785715Y-95607143D02*
X186928572Y-95607143D01*
X187928572Y-95464286D02*
X187928572Y-96178571D01*
X187428572Y-94678571D02*
X187928572Y-95464286D01*
X188428572Y-94678571D01*
X111785715Y-100107143D02*
X112928572Y-100107143D01*
X112357143Y-100678571D02*
X112357143Y-99535714D01*
X113928572Y-99964286D02*
X113928572Y-100678571D01*
X113428572Y-99178571D02*
X113928572Y-99964286D01*
X114428572Y-99178571D01*
X160821429Y-63107143D02*
X161964286Y-63107143D01*
X162535715Y-63678571D02*
X163321429Y-62678571D01*
X162535715Y-62678571D02*
X163321429Y-63678571D01*
X131821429Y-135107143D02*
X132964286Y-135107143D01*
X132392857Y-135678571D02*
X132392857Y-134535714D01*
X133535715Y-135678571D02*
X134321429Y-134678571D01*
X133535715Y-134678571D02*
X134321429Y-135678571D01*
X178532143Y-111657142D02*
X178603571Y-111442856D01*
X178603571Y-111085713D01*
X178532143Y-110942856D01*
X178460714Y-110871427D01*
X178317857Y-110799999D01*
X178175000Y-110799999D01*
X178032143Y-110871427D01*
X177960714Y-110942856D01*
X177889286Y-111085713D01*
X177817857Y-111371427D01*
X177746429Y-111514285D01*
X177675000Y-111585713D01*
X177532143Y-111657142D01*
X177389286Y-111657142D01*
X177246429Y-111585713D01*
X177175000Y-111514285D01*
X177103571Y-111371427D01*
X177103571Y-111014285D01*
X177175000Y-110799999D01*
X177817857Y-109657142D02*
X177817857Y-110157142D01*
X178603571Y-110157142D02*
X177103571Y-110157142D01*
X177103571Y-109442856D01*
X177103571Y-108871428D02*
X178317857Y-108871428D01*
X178460714Y-108800000D01*
X178532143Y-108728571D01*
X178603571Y-108585714D01*
X178603571Y-108300000D01*
X178532143Y-108157142D01*
X178460714Y-108085714D01*
X178317857Y-108014285D01*
X177103571Y-108014285D01*
X178532143Y-106228571D02*
X178603571Y-106014285D01*
X178603571Y-105657142D01*
X178532143Y-105514285D01*
X178460714Y-105442856D01*
X178317857Y-105371428D01*
X178175000Y-105371428D01*
X178032143Y-105442856D01*
X177960714Y-105514285D01*
X177889286Y-105657142D01*
X177817857Y-105942856D01*
X177746429Y-106085714D01*
X177675000Y-106157142D01*
X177532143Y-106228571D01*
X177389286Y-106228571D01*
X177246429Y-106157142D01*
X177175000Y-106085714D01*
X177103571Y-105942856D01*
X177103571Y-105585714D01*
X177175000Y-105371428D01*
X178603571Y-104085714D02*
X177817857Y-104085714D01*
X177675000Y-104157143D01*
X177603571Y-104300000D01*
X177603571Y-104585714D01*
X177675000Y-104728571D01*
X178532143Y-104085714D02*
X178603571Y-104228571D01*
X178603571Y-104585714D01*
X178532143Y-104728571D01*
X178389286Y-104800000D01*
X178246429Y-104800000D01*
X178103571Y-104728571D01*
X178032143Y-104585714D01*
X178032143Y-104228571D01*
X177960714Y-104085714D01*
X177603571Y-103585714D02*
X177603571Y-103014285D01*
X177103571Y-103371428D02*
X178389286Y-103371428D01*
X178532143Y-103300000D01*
X178603571Y-103157142D01*
X178603571Y-103014285D01*
X178532143Y-101942857D02*
X178603571Y-102085714D01*
X178603571Y-102371428D01*
X178532143Y-102514285D01*
X178389286Y-102585714D01*
X177817857Y-102585714D01*
X177675000Y-102514285D01*
X177603571Y-102371428D01*
X177603571Y-102085714D01*
X177675000Y-101942857D01*
X177817857Y-101871428D01*
X177960714Y-101871428D01*
X178103571Y-102585714D01*
X178603571Y-101014285D02*
X178532143Y-101157143D01*
X178389286Y-101228571D01*
X177103571Y-101228571D01*
X178603571Y-100228571D02*
X178532143Y-100371429D01*
X178389286Y-100442857D01*
X177103571Y-100442857D01*
X178603571Y-99657143D02*
X177603571Y-99657143D01*
X177103571Y-99657143D02*
X177175000Y-99728572D01*
X177246429Y-99657143D01*
X177175000Y-99585715D01*
X177103571Y-99657143D01*
X177246429Y-99657143D01*
X177603571Y-99157143D02*
X177603571Y-98585714D01*
X177103571Y-98942857D02*
X178389286Y-98942857D01*
X178532143Y-98871429D01*
X178603571Y-98728571D01*
X178603571Y-98585714D01*
X178532143Y-97514286D02*
X178603571Y-97657143D01*
X178603571Y-97942857D01*
X178532143Y-98085714D01*
X178389286Y-98157143D01*
X177817857Y-98157143D01*
X177675000Y-98085714D01*
X177603571Y-97942857D01*
X177603571Y-97657143D01*
X177675000Y-97514286D01*
X177817857Y-97442857D01*
X177960714Y-97442857D01*
X178103571Y-98157143D01*
X178603571Y-95657143D02*
X177103571Y-95657143D01*
X177103571Y-95300000D01*
X177175000Y-95085715D01*
X177317857Y-94942857D01*
X177460714Y-94871429D01*
X177746429Y-94800000D01*
X177960714Y-94800000D01*
X178246429Y-94871429D01*
X178389286Y-94942857D01*
X178532143Y-95085715D01*
X178603571Y-95300000D01*
X178603571Y-95657143D01*
X178532143Y-93585715D02*
X178603571Y-93728572D01*
X178603571Y-94014286D01*
X178532143Y-94157143D01*
X178389286Y-94228572D01*
X177817857Y-94228572D01*
X177675000Y-94157143D01*
X177603571Y-94014286D01*
X177603571Y-93728572D01*
X177675000Y-93585715D01*
X177817857Y-93514286D01*
X177960714Y-93514286D01*
X178103571Y-94228572D01*
X178532143Y-92942858D02*
X178603571Y-92800001D01*
X178603571Y-92514286D01*
X178532143Y-92371429D01*
X178389286Y-92300001D01*
X178317857Y-92300001D01*
X178175000Y-92371429D01*
X178103571Y-92514286D01*
X178103571Y-92728572D01*
X178032143Y-92871429D01*
X177889286Y-92942858D01*
X177817857Y-92942858D01*
X177675000Y-92871429D01*
X177603571Y-92728572D01*
X177603571Y-92514286D01*
X177675000Y-92371429D01*
X178603571Y-91657143D02*
X177603571Y-91657143D01*
X177103571Y-91657143D02*
X177175000Y-91728572D01*
X177246429Y-91657143D01*
X177175000Y-91585715D01*
X177103571Y-91657143D01*
X177246429Y-91657143D01*
X177603571Y-90300000D02*
X178817857Y-90300000D01*
X178960714Y-90371429D01*
X179032143Y-90442857D01*
X179103571Y-90585714D01*
X179103571Y-90800000D01*
X179032143Y-90942857D01*
X178532143Y-90300000D02*
X178603571Y-90442857D01*
X178603571Y-90728571D01*
X178532143Y-90871429D01*
X178460714Y-90942857D01*
X178317857Y-91014286D01*
X177889286Y-91014286D01*
X177746429Y-90942857D01*
X177675000Y-90871429D01*
X177603571Y-90728571D01*
X177603571Y-90442857D01*
X177675000Y-90300000D01*
X177603571Y-89585714D02*
X178603571Y-89585714D01*
X177746429Y-89585714D02*
X177675000Y-89514286D01*
X177603571Y-89371428D01*
X177603571Y-89157143D01*
X177675000Y-89014286D01*
X177817857Y-88942857D01*
X178603571Y-88942857D01*
X177103571Y-87300000D02*
X177103571Y-86442857D01*
X178603571Y-86871428D02*
X177103571Y-86871428D01*
X178532143Y-85371429D02*
X178603571Y-85514286D01*
X178603571Y-85800000D01*
X178532143Y-85942857D01*
X178389286Y-86014286D01*
X177817857Y-86014286D01*
X177675000Y-85942857D01*
X177603571Y-85800000D01*
X177603571Y-85514286D01*
X177675000Y-85371429D01*
X177817857Y-85300000D01*
X177960714Y-85300000D01*
X178103571Y-86014286D01*
X178603571Y-84014286D02*
X177817857Y-84014286D01*
X177675000Y-84085715D01*
X177603571Y-84228572D01*
X177603571Y-84514286D01*
X177675000Y-84657143D01*
X178532143Y-84014286D02*
X178603571Y-84157143D01*
X178603571Y-84514286D01*
X178532143Y-84657143D01*
X178389286Y-84728572D01*
X178246429Y-84728572D01*
X178103571Y-84657143D01*
X178032143Y-84514286D01*
X178032143Y-84157143D01*
X177960714Y-84014286D01*
X178603571Y-83300000D02*
X177603571Y-83300000D01*
X177746429Y-83300000D02*
X177675000Y-83228572D01*
X177603571Y-83085714D01*
X177603571Y-82871429D01*
X177675000Y-82728572D01*
X177817857Y-82657143D01*
X178603571Y-82657143D01*
X177817857Y-82657143D02*
X177675000Y-82585714D01*
X177603571Y-82442857D01*
X177603571Y-82228572D01*
X177675000Y-82085714D01*
X177817857Y-82014286D01*
X178603571Y-82014286D01*
X180153571Y-105371428D02*
X180153571Y-104585714D01*
X181153571Y-105371428D01*
X181153571Y-104585714D01*
X180582143Y-104014285D02*
X180582143Y-102871428D01*
X180153571Y-102157142D02*
X181653571Y-102157142D01*
X180225000Y-102157142D02*
X180153571Y-102014285D01*
X180153571Y-101728571D01*
X180225000Y-101585714D01*
X180296429Y-101514285D01*
X180439286Y-101442856D01*
X180867857Y-101442856D01*
X181010714Y-101514285D01*
X181082143Y-101585714D01*
X181153571Y-101728571D01*
X181153571Y-102014285D01*
X181082143Y-102157142D01*
X181153571Y-100157142D02*
X180367857Y-100157142D01*
X180225000Y-100228571D01*
X180153571Y-100371428D01*
X180153571Y-100657142D01*
X180225000Y-100799999D01*
X181082143Y-100157142D02*
X181153571Y-100299999D01*
X181153571Y-100657142D01*
X181082143Y-100799999D01*
X180939286Y-100871428D01*
X180796429Y-100871428D01*
X180653571Y-100799999D01*
X180582143Y-100657142D01*
X180582143Y-100299999D01*
X180510714Y-100157142D01*
X180153571Y-99442856D02*
X181153571Y-99442856D01*
X180296429Y-99442856D02*
X180225000Y-99371428D01*
X180153571Y-99228570D01*
X180153571Y-99014285D01*
X180225000Y-98871428D01*
X180367857Y-98799999D01*
X181153571Y-98799999D01*
X181082143Y-97514285D02*
X181153571Y-97657142D01*
X181153571Y-97942856D01*
X181082143Y-98085713D01*
X180939286Y-98157142D01*
X180367857Y-98157142D01*
X180225000Y-98085713D01*
X180153571Y-97942856D01*
X180153571Y-97657142D01*
X180225000Y-97514285D01*
X180367857Y-97442856D01*
X180510714Y-97442856D01*
X180653571Y-98157142D01*
X181153571Y-96585713D02*
X181082143Y-96728571D01*
X180939286Y-96799999D01*
X179653571Y-96799999D01*
X181153571Y-94014285D02*
X180439286Y-94514285D01*
X181153571Y-94871428D02*
X179653571Y-94871428D01*
X179653571Y-94300000D01*
X179725000Y-94157142D01*
X179796429Y-94085714D01*
X179939286Y-94014285D01*
X180153571Y-94014285D01*
X180296429Y-94085714D01*
X180367857Y-94157142D01*
X180439286Y-94300000D01*
X180439286Y-94871428D01*
X181082143Y-92800000D02*
X181153571Y-92942857D01*
X181153571Y-93228571D01*
X181082143Y-93371428D01*
X180939286Y-93442857D01*
X180367857Y-93442857D01*
X180225000Y-93371428D01*
X180153571Y-93228571D01*
X180153571Y-92942857D01*
X180225000Y-92800000D01*
X180367857Y-92728571D01*
X180510714Y-92728571D01*
X180653571Y-93442857D01*
X180153571Y-92228571D02*
X181153571Y-91871428D01*
X180153571Y-91514286D01*
X181010714Y-90942857D02*
X181082143Y-90871429D01*
X181153571Y-90942857D01*
X181082143Y-91014286D01*
X181010714Y-90942857D01*
X181153571Y-90942857D01*
X181153571Y-88300000D02*
X181153571Y-89157143D01*
X181153571Y-88728571D02*
X179653571Y-88728571D01*
X179867857Y-88871428D01*
X180010714Y-89014286D01*
X180082143Y-89157143D01*
D12*
X110657143Y-124514286D02*
X111857143Y-124514286D01*
X111857143Y-124800001D01*
X111800000Y-124971429D01*
X111685714Y-125085715D01*
X111571429Y-125142858D01*
X111342857Y-125200001D01*
X111171429Y-125200001D01*
X110942857Y-125142858D01*
X110828571Y-125085715D01*
X110714286Y-124971429D01*
X110657143Y-124800001D01*
X110657143Y-124514286D01*
X111457143Y-126228572D02*
X110657143Y-126228572D01*
X111914286Y-125942858D02*
X111057143Y-125657143D01*
X111057143Y-126400001D01*
X188942857Y-129885714D02*
X187742857Y-129885714D01*
X187742857Y-129599999D01*
X187800000Y-129428571D01*
X187914286Y-129314285D01*
X188028571Y-129257142D01*
X188257143Y-129199999D01*
X188428571Y-129199999D01*
X188657143Y-129257142D01*
X188771429Y-129314285D01*
X188885714Y-129428571D01*
X188942857Y-129599999D01*
X188942857Y-129885714D01*
X187742857Y-128799999D02*
X187742857Y-128057142D01*
X188200000Y-128457142D01*
X188200000Y-128285714D01*
X188257143Y-128171428D01*
X188314286Y-128114285D01*
X188428571Y-128057142D01*
X188714286Y-128057142D01*
X188828571Y-128114285D01*
X188885714Y-128171428D01*
X188942857Y-128285714D01*
X188942857Y-128628571D01*
X188885714Y-128742857D01*
X188828571Y-128799999D01*
X189542857Y-75485714D02*
X188342857Y-75485714D01*
X188342857Y-75199999D01*
X188400000Y-75028571D01*
X188514286Y-74914285D01*
X188628571Y-74857142D01*
X188857143Y-74799999D01*
X189028571Y-74799999D01*
X189257143Y-74857142D01*
X189371429Y-74914285D01*
X189485714Y-75028571D01*
X189542857Y-75199999D01*
X189542857Y-75485714D01*
X188457143Y-74342857D02*
X188400000Y-74285714D01*
X188342857Y-74171428D01*
X188342857Y-73885714D01*
X188400000Y-73771428D01*
X188457143Y-73714285D01*
X188571429Y-73657142D01*
X188685714Y-73657142D01*
X188857143Y-73714285D01*
X189542857Y-74399999D01*
X189542857Y-73657142D01*
X110457143Y-74114286D02*
X111657143Y-74114286D01*
X111657143Y-74400001D01*
X111600000Y-74571429D01*
X111485714Y-74685715D01*
X111371429Y-74742858D01*
X111142857Y-74800001D01*
X110971429Y-74800001D01*
X110742857Y-74742858D01*
X110628571Y-74685715D01*
X110514286Y-74571429D01*
X110457143Y-74400001D01*
X110457143Y-74114286D01*
X110457143Y-75942858D02*
X110457143Y-75257143D01*
X110457143Y-75600001D02*
X111657143Y-75600001D01*
X111485714Y-75485715D01*
X111371429Y-75371429D01*
X111314286Y-75257143D01*
X156742857Y-120285714D02*
X155542857Y-120285714D01*
X155542857Y-119999999D01*
X155600000Y-119828571D01*
X155714286Y-119714285D01*
X155828571Y-119657142D01*
X156057143Y-119599999D01*
X156228571Y-119599999D01*
X156457143Y-119657142D01*
X156571429Y-119714285D01*
X156685714Y-119828571D01*
X156742857Y-119999999D01*
X156742857Y-120285714D01*
X155942857Y-118571428D02*
X156742857Y-118571428D01*
X155485714Y-118857142D02*
X156342857Y-119142857D01*
X156342857Y-118399999D01*
X155142857Y-120285714D02*
X153942857Y-120285714D01*
X153942857Y-119999999D01*
X154000000Y-119828571D01*
X154114286Y-119714285D01*
X154228571Y-119657142D01*
X154457143Y-119599999D01*
X154628571Y-119599999D01*
X154857143Y-119657142D01*
X154971429Y-119714285D01*
X155085714Y-119828571D01*
X155142857Y-119999999D01*
X155142857Y-120285714D01*
X153942857Y-119199999D02*
X153942857Y-118457142D01*
X154400000Y-118857142D01*
X154400000Y-118685714D01*
X154457143Y-118571428D01*
X154514286Y-118514285D01*
X154628571Y-118457142D01*
X154914286Y-118457142D01*
X155028571Y-118514285D01*
X155085714Y-118571428D01*
X155142857Y-118685714D01*
X155142857Y-119028571D01*
X155085714Y-119142857D01*
X155028571Y-119199999D01*
X153542857Y-120285714D02*
X152342857Y-120285714D01*
X152342857Y-119999999D01*
X152400000Y-119828571D01*
X152514286Y-119714285D01*
X152628571Y-119657142D01*
X152857143Y-119599999D01*
X153028571Y-119599999D01*
X153257143Y-119657142D01*
X153371429Y-119714285D01*
X153485714Y-119828571D01*
X153542857Y-119999999D01*
X153542857Y-120285714D01*
X152457143Y-119142857D02*
X152400000Y-119085714D01*
X152342857Y-118971428D01*
X152342857Y-118685714D01*
X152400000Y-118571428D01*
X152457143Y-118514285D01*
X152571429Y-118457142D01*
X152685714Y-118457142D01*
X152857143Y-118514285D01*
X153542857Y-119199999D01*
X153542857Y-118457142D01*
X151942857Y-120285714D02*
X150742857Y-120285714D01*
X150742857Y-119999999D01*
X150800000Y-119828571D01*
X150914286Y-119714285D01*
X151028571Y-119657142D01*
X151257143Y-119599999D01*
X151428571Y-119599999D01*
X151657143Y-119657142D01*
X151771429Y-119714285D01*
X151885714Y-119828571D01*
X151942857Y-119999999D01*
X151942857Y-120285714D01*
X151942857Y-118457142D02*
X151942857Y-119142857D01*
X151942857Y-118799999D02*
X150742857Y-118799999D01*
X150914286Y-118914285D01*
X151028571Y-119028571D01*
X151085714Y-119142857D01*
X149742857Y-120285714D02*
X148542857Y-120285714D01*
X148542857Y-119999999D01*
X148600000Y-119828571D01*
X148714286Y-119714285D01*
X148828571Y-119657142D01*
X149057143Y-119599999D01*
X149228571Y-119599999D01*
X149457143Y-119657142D01*
X149571429Y-119714285D01*
X149685714Y-119828571D01*
X149742857Y-119999999D01*
X149742857Y-120285714D01*
X148942857Y-118571428D02*
X149742857Y-118571428D01*
X148485714Y-118857142D02*
X149342857Y-119142857D01*
X149342857Y-118399999D01*
X148142857Y-120285714D02*
X146942857Y-120285714D01*
X146942857Y-119999999D01*
X147000000Y-119828571D01*
X147114286Y-119714285D01*
X147228571Y-119657142D01*
X147457143Y-119599999D01*
X147628571Y-119599999D01*
X147857143Y-119657142D01*
X147971429Y-119714285D01*
X148085714Y-119828571D01*
X148142857Y-119999999D01*
X148142857Y-120285714D01*
X146942857Y-119199999D02*
X146942857Y-118457142D01*
X147400000Y-118857142D01*
X147400000Y-118685714D01*
X147457143Y-118571428D01*
X147514286Y-118514285D01*
X147628571Y-118457142D01*
X147914286Y-118457142D01*
X148028571Y-118514285D01*
X148085714Y-118571428D01*
X148142857Y-118685714D01*
X148142857Y-119028571D01*
X148085714Y-119142857D01*
X148028571Y-119199999D01*
X146542857Y-120285714D02*
X145342857Y-120285714D01*
X145342857Y-119999999D01*
X145400000Y-119828571D01*
X145514286Y-119714285D01*
X145628571Y-119657142D01*
X145857143Y-119599999D01*
X146028571Y-119599999D01*
X146257143Y-119657142D01*
X146371429Y-119714285D01*
X146485714Y-119828571D01*
X146542857Y-119999999D01*
X146542857Y-120285714D01*
X145457143Y-119142857D02*
X145400000Y-119085714D01*
X145342857Y-118971428D01*
X145342857Y-118685714D01*
X145400000Y-118571428D01*
X145457143Y-118514285D01*
X145571429Y-118457142D01*
X145685714Y-118457142D01*
X145857143Y-118514285D01*
X146542857Y-119199999D01*
X146542857Y-118457142D01*
X144942857Y-120285714D02*
X143742857Y-120285714D01*
X143742857Y-119999999D01*
X143800000Y-119828571D01*
X143914286Y-119714285D01*
X144028571Y-119657142D01*
X144257143Y-119599999D01*
X144428571Y-119599999D01*
X144657143Y-119657142D01*
X144771429Y-119714285D01*
X144885714Y-119828571D01*
X144942857Y-119999999D01*
X144942857Y-120285714D01*
X144942857Y-118457142D02*
X144942857Y-119142857D01*
X144942857Y-118799999D02*
X143742857Y-118799999D01*
X143914286Y-118914285D01*
X144028571Y-119028571D01*
X144085714Y-119142857D01*
D11*
X151485715Y-124878571D02*
X151485715Y-123378571D01*
X151842858Y-123378571D01*
X152057143Y-123450000D01*
X152200001Y-123592857D01*
X152271429Y-123735714D01*
X152342858Y-124021429D01*
X152342858Y-124235714D01*
X152271429Y-124521429D01*
X152200001Y-124664286D01*
X152057143Y-124807143D01*
X151842858Y-124878571D01*
X151485715Y-124878571D01*
X152628572Y-125021429D02*
X153771429Y-125021429D01*
X154628572Y-124092857D02*
X154842858Y-124164286D01*
X154914286Y-124235714D01*
X154985715Y-124378571D01*
X154985715Y-124592857D01*
X154914286Y-124735714D01*
X154842858Y-124807143D01*
X154700000Y-124878571D01*
X154128572Y-124878571D01*
X154128572Y-123378571D01*
X154628572Y-123378571D01*
X154771429Y-123450000D01*
X154842858Y-123521429D01*
X154914286Y-123664286D01*
X154914286Y-123807143D01*
X154842858Y-123950000D01*
X154771429Y-124021429D01*
X154628572Y-124092857D01*
X154128572Y-124092857D01*
X145592858Y-124878571D02*
X145592858Y-123378571D01*
X145950001Y-123378571D01*
X146164286Y-123450000D01*
X146307144Y-123592857D01*
X146378572Y-123735714D01*
X146450001Y-124021429D01*
X146450001Y-124235714D01*
X146378572Y-124521429D01*
X146307144Y-124664286D01*
X146164286Y-124807143D01*
X145950001Y-124878571D01*
X145592858Y-124878571D01*
X146735715Y-125021429D02*
X147878572Y-125021429D01*
X148164286Y-124450000D02*
X148878572Y-124450000D01*
X148021429Y-124878571D02*
X148521429Y-123378571D01*
X149021429Y-124878571D01*
D13*
X146250000Y-130500000D02*
X153750000Y-130500000D01*
X145500000Y-126750000D02*
X145500000Y-129750000D01*
X146250000Y-126750000D02*
X145500000Y-126750000D01*
X154500000Y-126750000D02*
X154500000Y-129750000D01*
X154250000Y-126750000D02*
X154500000Y-126750000D01*
X154000000Y-126750000D02*
X154250000Y-126750000D01*
X153750000Y-126750000D02*
X154000000Y-126750000D01*
X163000000Y-88450000D02*
X137400000Y-88450000D01*
X163000000Y-114050000D02*
X163000000Y-88450000D01*
X137400000Y-88450000D02*
X137400000Y-114050000D01*
X137400000Y-114050000D02*
X163000000Y-114050000D01*
D14*
X115530000Y-83750000D02*
X115530000Y-84250000D01*
X116470000Y-84250000D02*
X116470000Y-83750000D01*
X180250000Y-77530000D02*
X179750000Y-77530000D01*
X179750000Y-78470000D02*
X180250000Y-78470000D01*
X183270000Y-115650000D02*
X183270000Y-115150000D01*
X182330000Y-115150000D02*
X182330000Y-115650000D01*
X119550000Y-122670000D02*
X120050000Y-122670000D01*
X120050000Y-121730000D02*
X119550000Y-121730000D01*
D13*
X115450000Y-72750000D02*
X116200000Y-72750000D01*
X112200000Y-72750000D02*
X112950000Y-72750000D01*
X113200000Y-77250000D02*
X112200000Y-77250000D01*
X116200000Y-77250000D02*
X115200000Y-77250000D01*
X112200000Y-77250000D02*
X112200000Y-72750000D01*
X116200000Y-77250000D02*
X116200000Y-72750000D01*
X184550000Y-77250000D02*
X183800000Y-77250000D01*
X187800000Y-77250000D02*
X187050000Y-77250000D01*
X186800000Y-72750000D02*
X187800000Y-72750000D01*
X183800000Y-72750000D02*
X184800000Y-72750000D01*
X187800000Y-72750000D02*
X187800000Y-77250000D01*
X183800000Y-72750000D02*
X183800000Y-77250000D01*
X184950000Y-127450000D02*
X184200000Y-127450000D01*
X188200000Y-127450000D02*
X187450000Y-127450000D01*
X187200000Y-122950000D02*
X188200000Y-122950000D01*
X184200000Y-122950000D02*
X185200000Y-122950000D01*
X188200000Y-122950000D02*
X188200000Y-127450000D01*
X184200000Y-122950000D02*
X184200000Y-127450000D01*
X115450000Y-123150000D02*
X116200000Y-123150000D01*
X112200000Y-123150000D02*
X112950000Y-123150000D01*
X113200000Y-127650000D02*
X112200000Y-127650000D01*
X116200000Y-127650000D02*
X115200000Y-127650000D01*
X112200000Y-127650000D02*
X112200000Y-123150000D01*
X116200000Y-127650000D02*
X116200000Y-123150000D01*
D14*
X116870000Y-83750000D02*
X116870000Y-84250000D01*
X117930000Y-84250000D02*
X117930000Y-83750000D01*
X111950000Y-88530000D02*
X112450000Y-88530000D01*
X112450000Y-87470000D02*
X111950000Y-87470000D01*
X180250000Y-78870000D02*
X179750000Y-78870000D01*
X179750000Y-79930000D02*
X180250000Y-79930000D01*
X175470000Y-73950000D02*
X175470000Y-74450000D01*
X176530000Y-74450000D02*
X176530000Y-73950000D01*
X181930000Y-115650000D02*
X181930000Y-115150000D01*
X180870000Y-115150000D02*
X180870000Y-115650000D01*
X186850000Y-110870000D02*
X186350000Y-110870000D01*
X186350000Y-111930000D02*
X186850000Y-111930000D01*
X119550000Y-121330000D02*
X120050000Y-121330000D01*
X120050000Y-120270000D02*
X119550000Y-120270000D01*
X124330000Y-126450000D02*
X124330000Y-125950000D01*
X123270000Y-125950000D02*
X123270000Y-126450000D01*
X145330000Y-122450000D02*
X145330000Y-121950000D01*
X144270000Y-121950000D02*
X144270000Y-122450000D01*
X151730000Y-122450000D02*
X151730000Y-121950000D01*
X150670000Y-121950000D02*
X150670000Y-122450000D01*
X146730000Y-122450000D02*
X146730000Y-121950000D01*
X145670000Y-121950000D02*
X145670000Y-122450000D01*
X153130000Y-122450000D02*
X153130000Y-121950000D01*
X152070000Y-121950000D02*
X152070000Y-122450000D01*
X148130000Y-122450000D02*
X148130000Y-121950000D01*
X147070000Y-121950000D02*
X147070000Y-122450000D01*
X154530000Y-122450000D02*
X154530000Y-121950000D01*
X153470000Y-121950000D02*
X153470000Y-122450000D01*
X149530000Y-122450000D02*
X149530000Y-121950000D01*
X148470000Y-121950000D02*
X148470000Y-122450000D01*
X155930000Y-122450000D02*
X155930000Y-121950000D01*
X154870000Y-121950000D02*
X154870000Y-122450000D01*
D15*
G36*
X167059689Y-96256464D02*
X167245070Y-96138590D01*
X167510617Y-95988642D01*
X167603833Y-95939005D01*
X167896523Y-95782608D01*
X168130473Y-95652622D01*
X168265485Y-95571536D01*
X168280127Y-95560620D01*
X168282612Y-95458887D01*
X168214229Y-95270576D01*
X168174293Y-95190613D01*
X168069287Y-94978783D01*
X168010520Y-94829352D01*
X168006000Y-94804285D01*
X168080781Y-94775941D01*
X168272818Y-94782452D01*
X168429333Y-94803978D01*
X168789116Y-94865205D01*
X169169255Y-94929921D01*
X169269692Y-94947025D01*
X169522330Y-94981926D01*
X169655608Y-94969912D01*
X169714915Y-94903212D01*
X169725708Y-94868952D01*
X169691060Y-94703909D01*
X169536252Y-94501283D01*
X169520349Y-94485754D01*
X169368826Y-94358183D01*
X169281559Y-94318697D01*
X169273425Y-94330993D01*
X169237892Y-94334416D01*
X169178909Y-94252084D01*
X169148791Y-94088568D01*
X169269044Y-93982667D01*
X169511749Y-93945963D01*
X169622450Y-93933763D01*
X169671935Y-93871182D01*
X169672997Y-93716322D01*
X169647882Y-93500166D01*
X169600462Y-93203123D01*
X169544186Y-92946832D01*
X169516473Y-92855729D01*
X169479915Y-92722142D01*
X169534949Y-92679043D01*
X169718909Y-92697218D01*
X169719007Y-92697232D01*
X169965838Y-92745307D01*
X170279889Y-92820548D01*
X170436443Y-92862635D01*
X170877220Y-92986596D01*
X170993683Y-92694602D01*
X171110145Y-92402608D01*
X171523889Y-92898471D01*
X171725246Y-93140489D01*
X171880918Y-93328904D01*
X171962043Y-93428751D01*
X171966523Y-93434651D01*
X172031204Y-93389009D01*
X172195423Y-93238455D01*
X172441456Y-93000235D01*
X172751579Y-92691596D01*
X173108067Y-92329787D01*
X173219457Y-92215457D01*
X173587147Y-91841305D01*
X173914979Y-91515684D01*
X174184975Y-91255799D01*
X174379153Y-91078856D01*
X174479535Y-91002060D01*
X174488566Y-91001011D01*
X174480697Y-91096191D01*
X174405013Y-91276414D01*
X174375986Y-91331204D01*
X174269962Y-91545812D01*
X174130247Y-91859087D01*
X173983222Y-92211373D01*
X173950345Y-92293666D01*
X173532605Y-93575810D01*
X173277200Y-94889689D01*
X173183650Y-96220514D01*
X173251474Y-97553495D01*
X173480191Y-98873843D01*
X173869321Y-100166768D01*
X174234779Y-101043047D01*
X174369528Y-101338542D01*
X174470137Y-101573155D01*
X174519533Y-101706606D01*
X174521861Y-101720380D01*
X174468948Y-101693512D01*
X174334502Y-101567875D01*
X174170510Y-101395333D01*
X174003791Y-101190597D01*
X174003791Y-101005963D01*
X174018656Y-100963227D01*
X173975222Y-100799750D01*
X173882850Y-100550019D01*
X173874416Y-100529277D01*
X173726173Y-100139258D01*
X173577457Y-99704781D01*
X173498160Y-99448000D01*
X173278799Y-98489774D01*
X173139034Y-97440108D01*
X173082181Y-96358500D01*
X173111553Y-95304445D01*
X173217554Y-94410333D01*
X173303378Y-94008515D01*
X173435745Y-93503323D01*
X173598341Y-92948619D01*
X173774848Y-92398264D01*
X173948951Y-91906117D01*
X174062881Y-91619866D01*
X174030353Y-91624348D01*
X173897563Y-91735807D01*
X173681106Y-91938668D01*
X173397575Y-92217356D01*
X173063563Y-92556296D01*
X173046671Y-92573684D01*
X171959692Y-93693302D01*
X171812183Y-93459151D01*
X171660823Y-93243413D01*
X171465609Y-92994616D01*
X171410103Y-92928666D01*
X171155531Y-92632333D01*
X171048842Y-92865166D01*
X170983249Y-92998583D01*
X170912343Y-93068929D01*
X170795948Y-93081076D01*
X170593886Y-93039891D01*
X170290542Y-92957069D01*
X170017049Y-92891630D01*
X169811982Y-92862208D01*
X169727897Y-92871881D01*
X169714466Y-92978612D01*
X169738241Y-93195572D01*
X169776196Y-93392535D01*
X169834404Y-93719724D01*
X169824636Y-93916424D01*
X169739924Y-94010103D01*
X169614666Y-94029333D01*
X169448697Y-94064220D01*
X169430569Y-94171374D01*
X169560600Y-94354534D01*
X169650320Y-94446192D01*
X169821298Y-94627868D01*
X169884295Y-94761548D01*
X169862270Y-94906605D01*
X169845968Y-94952141D01*
X169758551Y-95183734D01*
X169157442Y-95073030D01*
X168828798Y-95011151D01*
X168543544Y-94955066D01*
X168363101Y-94916853D01*
X168362376Y-94916682D01*
X168235983Y-94895234D01*
X168214034Y-94942274D01*
X168284785Y-95096017D01*
X168298876Y-95123315D01*
X168395337Y-95344469D01*
X168404513Y-95511325D01*
X168308238Y-95656629D01*
X168088345Y-95813129D01*
X167838104Y-95953921D01*
X167561188Y-96109964D01*
X167353327Y-96239647D01*
X167250517Y-96320124D01*
X167245437Y-96330104D01*
X167314745Y-96392877D01*
X167499105Y-96506120D01*
X167760913Y-96647025D01*
X167803811Y-96668771D01*
X168082667Y-96820661D01*
X168297115Y-96959197D01*
X168404945Y-97056800D01*
X168408489Y-97063862D01*
X168403911Y-97209769D01*
X168334995Y-97423451D01*
X168315714Y-97466029D01*
X168232324Y-97653983D01*
X168228928Y-97735261D01*
X168309271Y-97754380D01*
X168339989Y-97754666D01*
X168512354Y-97709556D01*
X168687573Y-97558369D01*
X168891417Y-97277320D01*
X168938698Y-97202125D01*
X169061781Y-97025431D01*
X169149575Y-96939841D01*
X169166819Y-96939930D01*
X169145436Y-97025638D01*
X169047569Y-97204272D01*
X168939584Y-97370395D01*
X168634226Y-97874466D01*
X168392940Y-98392640D01*
X168239798Y-98870030D01*
X168208639Y-99037087D01*
X168190132Y-99301516D01*
X168239206Y-99485691D01*
X168361447Y-99654927D01*
X168544126Y-99816917D01*
X168777599Y-99903390D01*
X168994814Y-99934255D01*
X169284537Y-99942578D01*
X169455625Y-99905072D01*
X169481063Y-99882018D01*
X169479233Y-99822357D01*
X169417281Y-99835235D01*
X169264979Y-99834742D01*
X169244921Y-99829323D01*
X169244921Y-99649159D01*
X169459708Y-99643856D01*
X169564046Y-99580193D01*
X169616185Y-99414458D01*
X169625820Y-99363333D01*
X169669577Y-99032659D01*
X169647281Y-98830834D01*
X169550698Y-98727547D01*
X169445333Y-98699054D01*
X169240773Y-98644329D01*
X169137807Y-98589380D01*
X169137807Y-98406696D01*
X169216747Y-98375436D01*
X169387845Y-98253633D01*
X169618443Y-98065178D01*
X169691971Y-98001304D01*
X169925829Y-97790406D01*
X170097019Y-97626302D01*
X170176924Y-97536767D01*
X170178893Y-97528671D01*
X170090758Y-97533595D01*
X169902602Y-97575474D01*
X169853283Y-97588696D01*
X169567421Y-97735478D01*
X169322535Y-98017504D01*
X169198640Y-98225067D01*
X169136740Y-98370479D01*
X169137807Y-98406696D01*
X169137807Y-98589380D01*
X169131893Y-98586223D01*
X169042836Y-98577379D01*
X168946570Y-98711353D01*
X168899060Y-98816342D01*
X168784790Y-99178585D01*
X168795428Y-99431683D01*
X168934813Y-99584880D01*
X169206783Y-99647419D01*
X169244921Y-99649159D01*
X169244921Y-99829323D01*
X169042051Y-99774505D01*
X168989550Y-99753919D01*
X168791648Y-99654196D01*
X168704463Y-99533215D01*
X168683513Y-99322214D01*
X168683333Y-99280572D01*
X168736090Y-98964697D01*
X168882486Y-98563011D01*
X169104710Y-98117186D01*
X169351191Y-97717990D01*
X169500307Y-97550427D01*
X169694327Y-97466487D01*
X169905933Y-97437290D01*
X170152439Y-97433270D01*
X170268778Y-97481059D01*
X170253083Y-97592237D01*
X170103488Y-97778385D01*
X169818128Y-98051085D01*
X169805166Y-98062783D01*
X169560633Y-98286098D01*
X169437210Y-98425222D01*
X169432051Y-98511326D01*
X169542310Y-98575580D01*
X169751989Y-98644970D01*
X169841743Y-98716331D01*
X169846382Y-98876368D01*
X169830103Y-98962470D01*
X169774715Y-99247271D01*
X169725201Y-99544625D01*
X169679507Y-99852916D01*
X170299921Y-99682794D01*
X170622907Y-99605402D01*
X170848864Y-99574098D01*
X170946917Y-99593050D01*
X170947887Y-99595329D01*
X171017158Y-99726984D01*
X171083765Y-99826130D01*
X171138584Y-99876096D01*
X171209383Y-99868575D01*
X171315859Y-99786503D01*
X171477711Y-99612818D01*
X171714637Y-99330458D01*
X171856035Y-99157193D01*
X172111946Y-98852472D01*
X172331335Y-98610372D01*
X172492339Y-98453666D01*
X172573097Y-98405124D01*
X172576026Y-98407223D01*
X172631274Y-98513943D01*
X172726644Y-98735511D01*
X172843401Y-99028000D01*
X172867106Y-99089665D01*
X172999174Y-99392056D01*
X173179086Y-99746496D01*
X173385071Y-100116282D01*
X173595359Y-100464711D01*
X173788180Y-100755083D01*
X173941763Y-100950694D01*
X174003791Y-101005963D01*
X174003791Y-101190597D01*
X173771716Y-100905600D01*
X173379916Y-100331027D01*
X173036101Y-99736669D01*
X172784360Y-99195499D01*
X172666784Y-98911909D01*
X172568117Y-98702985D01*
X172506818Y-98607217D01*
X172501124Y-98604969D01*
X172432506Y-98669173D01*
X172282557Y-98841366D01*
X172073303Y-99095404D01*
X171826768Y-99405143D01*
X171823508Y-99409303D01*
X171522594Y-99785927D01*
X171307355Y-100035453D01*
X171165523Y-100168919D01*
X171084831Y-100197364D01*
X171053013Y-100131825D01*
X171051307Y-100104166D01*
X171001306Y-99955214D01*
X170934202Y-99847517D01*
X170830477Y-99754157D01*
X170683446Y-99739824D01*
X170492395Y-99778409D01*
X170231453Y-99843649D01*
X169890060Y-99929151D01*
X169614667Y-99998208D01*
X169084568Y-100077034D01*
X168660905Y-100027536D01*
X168350302Y-99858179D01*
X168159386Y-99577431D01*
X168094783Y-99193757D01*
X168163118Y-98715625D01*
X168298737Y-98316704D01*
X168502788Y-97820409D01*
X168254394Y-97870088D01*
X168091707Y-97896861D01*
X168024736Y-97871547D01*
X168047720Y-97763177D01*
X168154899Y-97540780D01*
X168182913Y-97485808D01*
X168266278Y-97323284D01*
X168304320Y-97208149D01*
X168277098Y-97114669D01*
X168164667Y-97017109D01*
X167947086Y-96889736D01*
X167604410Y-96706814D01*
X167561500Y-96683946D01*
X167289572Y-96531728D01*
X167087826Y-96405208D01*
X166992930Y-96327724D01*
X166990000Y-96320203D01*
X167059689Y-96256464D01*
X167059689Y-96256464D01*
G37*
X167059689Y-96256464D02*
X167245070Y-96138590D01*
X167510617Y-95988642D01*
X167603833Y-95939005D01*
X167896523Y-95782608D01*
X168130473Y-95652622D01*
X168265485Y-95571536D01*
X168280127Y-95560620D01*
X168282612Y-95458887D01*
X168214229Y-95270576D01*
X168174293Y-95190613D01*
X168069287Y-94978783D01*
X168010520Y-94829352D01*
X168006000Y-94804285D01*
X168080781Y-94775941D01*
X168272818Y-94782452D01*
X168429333Y-94803978D01*
X168789116Y-94865205D01*
X169169255Y-94929921D01*
X169269692Y-94947025D01*
X169522330Y-94981926D01*
X169655608Y-94969912D01*
X169714915Y-94903212D01*
X169725708Y-94868952D01*
X169691060Y-94703909D01*
X169536252Y-94501283D01*
X169520349Y-94485754D01*
X169368826Y-94358183D01*
X169281559Y-94318697D01*
X169273425Y-94330993D01*
X169237892Y-94334416D01*
X169178909Y-94252084D01*
X169148791Y-94088568D01*
X169269044Y-93982667D01*
X169511749Y-93945963D01*
X169622450Y-93933763D01*
X169671935Y-93871182D01*
X169672997Y-93716322D01*
X169647882Y-93500166D01*
X169600462Y-93203123D01*
X169544186Y-92946832D01*
X169516473Y-92855729D01*
X169479915Y-92722142D01*
X169534949Y-92679043D01*
X169718909Y-92697218D01*
X169719007Y-92697232D01*
X169965838Y-92745307D01*
X170279889Y-92820548D01*
X170436443Y-92862635D01*
X170877220Y-92986596D01*
X170993683Y-92694602D01*
X171110145Y-92402608D01*
X171523889Y-92898471D01*
X171725246Y-93140489D01*
X171880918Y-93328904D01*
X171962043Y-93428751D01*
X171966523Y-93434651D01*
X172031204Y-93389009D01*
X172195423Y-93238455D01*
X172441456Y-93000235D01*
X172751579Y-92691596D01*
X173108067Y-92329787D01*
X173219457Y-92215457D01*
X173587147Y-91841305D01*
X173914979Y-91515684D01*
X174184975Y-91255799D01*
X174379153Y-91078856D01*
X174479535Y-91002060D01*
X174488566Y-91001011D01*
X174480697Y-91096191D01*
X174405013Y-91276414D01*
X174375986Y-91331204D01*
X174269962Y-91545812D01*
X174130247Y-91859087D01*
X173983222Y-92211373D01*
X173950345Y-92293666D01*
X173532605Y-93575810D01*
X173277200Y-94889689D01*
X173183650Y-96220514D01*
X173251474Y-97553495D01*
X173480191Y-98873843D01*
X173869321Y-100166768D01*
X174234779Y-101043047D01*
X174369528Y-101338542D01*
X174470137Y-101573155D01*
X174519533Y-101706606D01*
X174521861Y-101720380D01*
X174468948Y-101693512D01*
X174334502Y-101567875D01*
X174170510Y-101395333D01*
X174003791Y-101190597D01*
X174003791Y-101005963D01*
X174018656Y-100963227D01*
X173975222Y-100799750D01*
X173882850Y-100550019D01*
X173874416Y-100529277D01*
X173726173Y-100139258D01*
X173577457Y-99704781D01*
X173498160Y-99448000D01*
X173278799Y-98489774D01*
X173139034Y-97440108D01*
X173082181Y-96358500D01*
X173111553Y-95304445D01*
X173217554Y-94410333D01*
X173303378Y-94008515D01*
X173435745Y-93503323D01*
X173598341Y-92948619D01*
X173774848Y-92398264D01*
X173948951Y-91906117D01*
X174062881Y-91619866D01*
X174030353Y-91624348D01*
X173897563Y-91735807D01*
X173681106Y-91938668D01*
X173397575Y-92217356D01*
X173063563Y-92556296D01*
X173046671Y-92573684D01*
X171959692Y-93693302D01*
X171812183Y-93459151D01*
X171660823Y-93243413D01*
X171465609Y-92994616D01*
X171410103Y-92928666D01*
X171155531Y-92632333D01*
X171048842Y-92865166D01*
X170983249Y-92998583D01*
X170912343Y-93068929D01*
X170795948Y-93081076D01*
X170593886Y-93039891D01*
X170290542Y-92957069D01*
X170017049Y-92891630D01*
X169811982Y-92862208D01*
X169727897Y-92871881D01*
X169714466Y-92978612D01*
X169738241Y-93195572D01*
X169776196Y-93392535D01*
X169834404Y-93719724D01*
X169824636Y-93916424D01*
X169739924Y-94010103D01*
X169614666Y-94029333D01*
X169448697Y-94064220D01*
X169430569Y-94171374D01*
X169560600Y-94354534D01*
X169650320Y-94446192D01*
X169821298Y-94627868D01*
X169884295Y-94761548D01*
X169862270Y-94906605D01*
X169845968Y-94952141D01*
X169758551Y-95183734D01*
X169157442Y-95073030D01*
X168828798Y-95011151D01*
X168543544Y-94955066D01*
X168363101Y-94916853D01*
X168362376Y-94916682D01*
X168235983Y-94895234D01*
X168214034Y-94942274D01*
X168284785Y-95096017D01*
X168298876Y-95123315D01*
X168395337Y-95344469D01*
X168404513Y-95511325D01*
X168308238Y-95656629D01*
X168088345Y-95813129D01*
X167838104Y-95953921D01*
X167561188Y-96109964D01*
X167353327Y-96239647D01*
X167250517Y-96320124D01*
X167245437Y-96330104D01*
X167314745Y-96392877D01*
X167499105Y-96506120D01*
X167760913Y-96647025D01*
X167803811Y-96668771D01*
X168082667Y-96820661D01*
X168297115Y-96959197D01*
X168404945Y-97056800D01*
X168408489Y-97063862D01*
X168403911Y-97209769D01*
X168334995Y-97423451D01*
X168315714Y-97466029D01*
X168232324Y-97653983D01*
X168228928Y-97735261D01*
X168309271Y-97754380D01*
X168339989Y-97754666D01*
X168512354Y-97709556D01*
X168687573Y-97558369D01*
X168891417Y-97277320D01*
X168938698Y-97202125D01*
X169061781Y-97025431D01*
X169149575Y-96939841D01*
X169166819Y-96939930D01*
X169145436Y-97025638D01*
X169047569Y-97204272D01*
X168939584Y-97370395D01*
X168634226Y-97874466D01*
X168392940Y-98392640D01*
X168239798Y-98870030D01*
X168208639Y-99037087D01*
X168190132Y-99301516D01*
X168239206Y-99485691D01*
X168361447Y-99654927D01*
X168544126Y-99816917D01*
X168777599Y-99903390D01*
X168994814Y-99934255D01*
X169284537Y-99942578D01*
X169455625Y-99905072D01*
X169481063Y-99882018D01*
X169479233Y-99822357D01*
X169417281Y-99835235D01*
X169264979Y-99834742D01*
X169244921Y-99829323D01*
X169244921Y-99649159D01*
X169459708Y-99643856D01*
X169564046Y-99580193D01*
X169616185Y-99414458D01*
X169625820Y-99363333D01*
X169669577Y-99032659D01*
X169647281Y-98830834D01*
X169550698Y-98727547D01*
X169445333Y-98699054D01*
X169240773Y-98644329D01*
X169137807Y-98589380D01*
X169137807Y-98406696D01*
X169216747Y-98375436D01*
X169387845Y-98253633D01*
X169618443Y-98065178D01*
X169691971Y-98001304D01*
X169925829Y-97790406D01*
X170097019Y-97626302D01*
X170176924Y-97536767D01*
X170178893Y-97528671D01*
X170090758Y-97533595D01*
X169902602Y-97575474D01*
X169853283Y-97588696D01*
X169567421Y-97735478D01*
X169322535Y-98017504D01*
X169198640Y-98225067D01*
X169136740Y-98370479D01*
X169137807Y-98406696D01*
X169137807Y-98589380D01*
X169131893Y-98586223D01*
X169042836Y-98577379D01*
X168946570Y-98711353D01*
X168899060Y-98816342D01*
X168784790Y-99178585D01*
X168795428Y-99431683D01*
X168934813Y-99584880D01*
X169206783Y-99647419D01*
X169244921Y-99649159D01*
X169244921Y-99829323D01*
X169042051Y-99774505D01*
X168989550Y-99753919D01*
X168791648Y-99654196D01*
X168704463Y-99533215D01*
X168683513Y-99322214D01*
X168683333Y-99280572D01*
X168736090Y-98964697D01*
X168882486Y-98563011D01*
X169104710Y-98117186D01*
X169351191Y-97717990D01*
X169500307Y-97550427D01*
X169694327Y-97466487D01*
X169905933Y-97437290D01*
X170152439Y-97433270D01*
X170268778Y-97481059D01*
X170253083Y-97592237D01*
X170103488Y-97778385D01*
X169818128Y-98051085D01*
X169805166Y-98062783D01*
X169560633Y-98286098D01*
X169437210Y-98425222D01*
X169432051Y-98511326D01*
X169542310Y-98575580D01*
X169751989Y-98644970D01*
X169841743Y-98716331D01*
X169846382Y-98876368D01*
X169830103Y-98962470D01*
X169774715Y-99247271D01*
X169725201Y-99544625D01*
X169679507Y-99852916D01*
X170299921Y-99682794D01*
X170622907Y-99605402D01*
X170848864Y-99574098D01*
X170946917Y-99593050D01*
X170947887Y-99595329D01*
X171017158Y-99726984D01*
X171083765Y-99826130D01*
X171138584Y-99876096D01*
X171209383Y-99868575D01*
X171315859Y-99786503D01*
X171477711Y-99612818D01*
X171714637Y-99330458D01*
X171856035Y-99157193D01*
X172111946Y-98852472D01*
X172331335Y-98610372D01*
X172492339Y-98453666D01*
X172573097Y-98405124D01*
X172576026Y-98407223D01*
X172631274Y-98513943D01*
X172726644Y-98735511D01*
X172843401Y-99028000D01*
X172867106Y-99089665D01*
X172999174Y-99392056D01*
X173179086Y-99746496D01*
X173385071Y-100116282D01*
X173595359Y-100464711D01*
X173788180Y-100755083D01*
X173941763Y-100950694D01*
X174003791Y-101005963D01*
X174003791Y-101190597D01*
X173771716Y-100905600D01*
X173379916Y-100331027D01*
X173036101Y-99736669D01*
X172784360Y-99195499D01*
X172666784Y-98911909D01*
X172568117Y-98702985D01*
X172506818Y-98607217D01*
X172501124Y-98604969D01*
X172432506Y-98669173D01*
X172282557Y-98841366D01*
X172073303Y-99095404D01*
X171826768Y-99405143D01*
X171823508Y-99409303D01*
X171522594Y-99785927D01*
X171307355Y-100035453D01*
X171165523Y-100168919D01*
X171084831Y-100197364D01*
X171053013Y-100131825D01*
X171051307Y-100104166D01*
X171001306Y-99955214D01*
X170934202Y-99847517D01*
X170830477Y-99754157D01*
X170683446Y-99739824D01*
X170492395Y-99778409D01*
X170231453Y-99843649D01*
X169890060Y-99929151D01*
X169614667Y-99998208D01*
X169084568Y-100077034D01*
X168660905Y-100027536D01*
X168350302Y-99858179D01*
X168159386Y-99577431D01*
X168094783Y-99193757D01*
X168163118Y-98715625D01*
X168298737Y-98316704D01*
X168502788Y-97820409D01*
X168254394Y-97870088D01*
X168091707Y-97896861D01*
X168024736Y-97871547D01*
X168047720Y-97763177D01*
X168154899Y-97540780D01*
X168182913Y-97485808D01*
X168266278Y-97323284D01*
X168304320Y-97208149D01*
X168277098Y-97114669D01*
X168164667Y-97017109D01*
X167947086Y-96889736D01*
X167604410Y-96706814D01*
X167561500Y-96683946D01*
X167289572Y-96531728D01*
X167087826Y-96405208D01*
X166992930Y-96327724D01*
X166990000Y-96320203D01*
X167059689Y-96256464D01*
G36*
X172109703Y-96247410D02*
X172202340Y-96148578D01*
X172327860Y-96041060D01*
X172410716Y-96060384D01*
X172498463Y-96172732D01*
X172583346Y-96320343D01*
X172553544Y-96425543D01*
X172484184Y-96498945D01*
X172365893Y-96590592D01*
X172270997Y-96559720D01*
X172188062Y-96474790D01*
X172089027Y-96344864D01*
X172109703Y-96247410D01*
X172109703Y-96247410D01*
G37*
X172109703Y-96247410D02*
X172202340Y-96148578D01*
X172327860Y-96041060D01*
X172410716Y-96060384D01*
X172498463Y-96172732D01*
X172583346Y-96320343D01*
X172553544Y-96425543D01*
X172484184Y-96498945D01*
X172365893Y-96590592D01*
X172270997Y-96559720D01*
X172188062Y-96474790D01*
X172089027Y-96344864D01*
X172109703Y-96247410D01*
G36*
X172473096Y-94031793D02*
X172493333Y-94029333D01*
X172575540Y-94093762D01*
X172578000Y-94114000D01*
X172513571Y-94196206D01*
X172493333Y-94198666D01*
X172411127Y-94134237D01*
X172408667Y-94114000D01*
X172473096Y-94031793D01*
X172473096Y-94031793D01*
G37*
X172473096Y-94031793D02*
X172493333Y-94029333D01*
X172575540Y-94093762D01*
X172578000Y-94114000D01*
X172513571Y-94196206D01*
X172493333Y-94198666D01*
X172411127Y-94134237D01*
X172408667Y-94114000D01*
X172473096Y-94031793D01*
G36*
X169325012Y-96701584D02*
X169454303Y-96509614D01*
X169637249Y-96264713D01*
X169662195Y-96232801D01*
X169889365Y-95962869D01*
X170054122Y-95818293D01*
X170180964Y-95779099D01*
X170212528Y-95784160D01*
X170349365Y-95792352D01*
X170351339Y-95708257D01*
X170217617Y-95528898D01*
X170108111Y-95411316D01*
X169945695Y-95227502D01*
X169890046Y-95096116D01*
X169920547Y-94958025D01*
X169936963Y-94920452D01*
X170088593Y-94747009D01*
X170298233Y-94716259D01*
X170532558Y-94828301D01*
X170630667Y-94918333D01*
X170817293Y-95085531D01*
X170928706Y-95116195D01*
X170955209Y-95009667D01*
X170942547Y-94939500D01*
X170948689Y-94802986D01*
X171038974Y-94627308D01*
X171230996Y-94382665D01*
X171352489Y-94245232D01*
X171807574Y-93741463D01*
X171988963Y-93905618D01*
X172164443Y-94082143D01*
X172237400Y-94230005D01*
X172201955Y-94386909D01*
X172052230Y-94590558D01*
X171847824Y-94810799D01*
X171603417Y-95045234D01*
X171403754Y-95199073D01*
X171279266Y-95249293D01*
X171270869Y-95247280D01*
X171140588Y-95242668D01*
X171109829Y-95333804D01*
X171186607Y-95473960D01*
X171225330Y-95512807D01*
X171361727Y-95717996D01*
X171380573Y-95938954D01*
X171294265Y-96124875D01*
X171115197Y-96224949D01*
X171050189Y-96230666D01*
X170891045Y-96171782D01*
X170759473Y-96063330D01*
X170611920Y-95955237D01*
X170505829Y-95963466D01*
X170485423Y-96077787D01*
X170499540Y-96123444D01*
X170473130Y-96241176D01*
X170367419Y-96444283D01*
X170212115Y-96688558D01*
X170036926Y-96929796D01*
X169871559Y-97123792D01*
X169765421Y-97215816D01*
X169661227Y-97195342D01*
X169507627Y-97091207D01*
X169361501Y-96951572D01*
X169279729Y-96824597D01*
X169276000Y-96801424D01*
X169325012Y-96701584D01*
X169325012Y-96701584D01*
G37*
X169325012Y-96701584D02*
X169454303Y-96509614D01*
X169637249Y-96264713D01*
X169662195Y-96232801D01*
X169889365Y-95962869D01*
X170054122Y-95818293D01*
X170180964Y-95779099D01*
X170212528Y-95784160D01*
X170349365Y-95792352D01*
X170351339Y-95708257D01*
X170217617Y-95528898D01*
X170108111Y-95411316D01*
X169945695Y-95227502D01*
X169890046Y-95096116D01*
X169920547Y-94958025D01*
X169936963Y-94920452D01*
X170088593Y-94747009D01*
X170298233Y-94716259D01*
X170532558Y-94828301D01*
X170630667Y-94918333D01*
X170817293Y-95085531D01*
X170928706Y-95116195D01*
X170955209Y-95009667D01*
X170942547Y-94939500D01*
X170948689Y-94802986D01*
X171038974Y-94627308D01*
X171230996Y-94382665D01*
X171352489Y-94245232D01*
X171807574Y-93741463D01*
X171988963Y-93905618D01*
X172164443Y-94082143D01*
X172237400Y-94230005D01*
X172201955Y-94386909D01*
X172052230Y-94590558D01*
X171847824Y-94810799D01*
X171603417Y-95045234D01*
X171403754Y-95199073D01*
X171279266Y-95249293D01*
X171270869Y-95247280D01*
X171140588Y-95242668D01*
X171109829Y-95333804D01*
X171186607Y-95473960D01*
X171225330Y-95512807D01*
X171361727Y-95717996D01*
X171380573Y-95938954D01*
X171294265Y-96124875D01*
X171115197Y-96224949D01*
X171050189Y-96230666D01*
X170891045Y-96171782D01*
X170759473Y-96063330D01*
X170611920Y-95955237D01*
X170505829Y-95963466D01*
X170485423Y-96077787D01*
X170499540Y-96123444D01*
X170473130Y-96241176D01*
X170367419Y-96444283D01*
X170212115Y-96688558D01*
X170036926Y-96929796D01*
X169871559Y-97123792D01*
X169765421Y-97215816D01*
X169661227Y-97195342D01*
X169507627Y-97091207D01*
X169361501Y-96951572D01*
X169279729Y-96824597D01*
X169276000Y-96801424D01*
X169325012Y-96701584D01*
G36*
X171770006Y-95857743D02*
X171884215Y-95881832D01*
X171946641Y-95958248D01*
X171869878Y-96051751D01*
X171748360Y-96109188D01*
X171686981Y-96058067D01*
X171675014Y-95928935D01*
X171770006Y-95857743D01*
X171770006Y-95857743D01*
G37*
X171770006Y-95857743D02*
X171884215Y-95881832D01*
X171946641Y-95958248D01*
X171869878Y-96051751D01*
X171748360Y-96109188D01*
X171686981Y-96058067D01*
X171675014Y-95928935D01*
X171770006Y-95857743D01*
G36*
X171409094Y-96451140D02*
X171450568Y-96410678D01*
X171571268Y-96336786D01*
X171681247Y-96400404D01*
X171691480Y-96410678D01*
X171762607Y-96531013D01*
X171700687Y-96668339D01*
X171696234Y-96674378D01*
X171603260Y-96774880D01*
X171520475Y-96743593D01*
X171455322Y-96674378D01*
X171369078Y-96548284D01*
X171409094Y-96451140D01*
X171409094Y-96451140D01*
G37*
X171409094Y-96451140D02*
X171450568Y-96410678D01*
X171571268Y-96336786D01*
X171681247Y-96400404D01*
X171691480Y-96410678D01*
X171762607Y-96531013D01*
X171700687Y-96668339D01*
X171696234Y-96674378D01*
X171603260Y-96774880D01*
X171520475Y-96743593D01*
X171455322Y-96674378D01*
X171369078Y-96548284D01*
X171409094Y-96451140D01*
D10*
X118523607Y-123000000D02*
G75*
G03X118523607Y-123000000I-223607J0D01*
G01*
X120800000Y-127400000D02*
X118800000Y-127400000D01*
X118800000Y-123400000D02*
X118800000Y-127400000D01*
X120800000Y-123400000D02*
X120800000Y-127400000D01*
X120800000Y-127400000D02*
X120800000Y-123400000D01*
X120800000Y-123400000D02*
X120800000Y-127400000D01*
X120800000Y-127400000D02*
X118800000Y-127400000D01*
X118800000Y-127400000D02*
X118800000Y-123400000D01*
X118800000Y-123400000D02*
X120800000Y-123400000D01*
X183623607Y-116900000D02*
G75*
G03X183623607Y-116900000I-223607J0D01*
G01*
X187800000Y-114400000D02*
X187800000Y-116400000D01*
X183800000Y-116400000D02*
X187800000Y-116400000D01*
X183800000Y-114400000D02*
X187800000Y-114400000D01*
X187800000Y-114400000D02*
X183800000Y-114400000D01*
X183800000Y-114400000D02*
X187800000Y-114400000D01*
X187800000Y-114400000D02*
X187800000Y-116400000D01*
X187800000Y-116400000D02*
X183800000Y-116400000D01*
X183800000Y-116400000D02*
X183800000Y-114400000D01*
X181723607Y-77400000D02*
G75*
G03X181723607Y-77400000I-223607J0D01*
G01*
X179000000Y-73000000D02*
X181000000Y-73000000D01*
X181000000Y-77000000D02*
X181000000Y-73000000D01*
X179000000Y-77000000D02*
X179000000Y-73000000D01*
X179000000Y-73000000D02*
X179000000Y-77000000D01*
X179000000Y-77000000D02*
X179000000Y-73000000D01*
X179000000Y-73000000D02*
X181000000Y-73000000D01*
X181000000Y-73000000D02*
X181000000Y-77000000D01*
X181000000Y-77000000D02*
X179000000Y-77000000D01*
X115623607Y-82500000D02*
G75*
G03X115623607Y-82500000I-223607J0D01*
G01*
X111000000Y-85000000D02*
X111000000Y-83000000D01*
X115000000Y-83000000D02*
X111000000Y-83000000D01*
X115000000Y-85000000D02*
X111000000Y-85000000D01*
X111000000Y-85000000D02*
X115000000Y-85000000D01*
X115000000Y-85000000D02*
X111000000Y-85000000D01*
X111000000Y-85000000D02*
X111000000Y-83000000D01*
X111000000Y-83000000D02*
X115000000Y-83000000D01*
X115000000Y-83000000D02*
X115000000Y-85000000D01*
D13*
X143452381Y-128733333D02*
X144166667Y-128733333D01*
X144309524Y-128780953D01*
X144404762Y-128876191D01*
X144452381Y-129019048D01*
X144452381Y-129114286D01*
X144452381Y-127733333D02*
X144452381Y-128304762D01*
X144452381Y-128019048D02*
X143452381Y-128019048D01*
X143595238Y-128114286D01*
X143690476Y-128209524D01*
X143738095Y-128304762D01*
X151285714Y-115366667D02*
X151761905Y-115366667D01*
X151190476Y-115652381D02*
X151523809Y-114652381D01*
X151857143Y-115652381D01*
X152714286Y-115652381D02*
X152142857Y-115652381D01*
X152428571Y-115652381D02*
X152428571Y-114652381D01*
X152333333Y-114795238D01*
X152238095Y-114890476D01*
X152142857Y-114938095D01*
X116357143Y-88319047D02*
X116404762Y-88366666D01*
X116452381Y-88509523D01*
X116452381Y-88604761D01*
X116404762Y-88747619D01*
X116309524Y-88842857D01*
X116214286Y-88890476D01*
X116023810Y-88938095D01*
X115880952Y-88938095D01*
X115690476Y-88890476D01*
X115595238Y-88842857D01*
X115500000Y-88747619D01*
X115452381Y-88604761D01*
X115452381Y-88509523D01*
X115500000Y-88366666D01*
X115547619Y-88319047D01*
X116452381Y-87366666D02*
X116452381Y-87938095D01*
X116452381Y-87652381D02*
X115452381Y-87652381D01*
X115595238Y-87747619D01*
X115690476Y-87842857D01*
X115738095Y-87938095D01*
X115452381Y-86747619D02*
X115452381Y-86652380D01*
X115500000Y-86557142D01*
X115547619Y-86509523D01*
X115642857Y-86461904D01*
X115833333Y-86414285D01*
X116071429Y-86414285D01*
X116261905Y-86461904D01*
X116357143Y-86509523D01*
X116404762Y-86557142D01*
X116452381Y-86652380D01*
X116452381Y-86747619D01*
X116404762Y-86842857D01*
X116357143Y-86890476D01*
X116261905Y-86938095D01*
X116071429Y-86985714D01*
X115833333Y-86985714D01*
X115642857Y-86938095D01*
X115547619Y-86890476D01*
X115500000Y-86842857D01*
X115452381Y-86747619D01*
X115452381Y-85795238D02*
X115452381Y-85699999D01*
X115500000Y-85604761D01*
X115547619Y-85557142D01*
X115642857Y-85509523D01*
X115833333Y-85461904D01*
X116071429Y-85461904D01*
X116261905Y-85509523D01*
X116357143Y-85557142D01*
X116404762Y-85604761D01*
X116452381Y-85699999D01*
X116452381Y-85795238D01*
X116404762Y-85890476D01*
X116357143Y-85938095D01*
X116261905Y-85985714D01*
X116071429Y-86033333D01*
X115833333Y-86033333D01*
X115642857Y-85985714D01*
X115547619Y-85938095D01*
X115500000Y-85890476D01*
X115452381Y-85795238D01*
X175280953Y-78357143D02*
X175233334Y-78404762D01*
X175090477Y-78452381D01*
X174995239Y-78452381D01*
X174852381Y-78404762D01*
X174757143Y-78309524D01*
X174709524Y-78214286D01*
X174661905Y-78023810D01*
X174661905Y-77880952D01*
X174709524Y-77690476D01*
X174757143Y-77595238D01*
X174852381Y-77500000D01*
X174995239Y-77452381D01*
X175090477Y-77452381D01*
X175233334Y-77500000D01*
X175280953Y-77547619D01*
X176233334Y-78452381D02*
X175661905Y-78452381D01*
X175947619Y-78452381D02*
X175947619Y-77452381D01*
X175852381Y-77595238D01*
X175757143Y-77690476D01*
X175661905Y-77738095D01*
X177185715Y-78452381D02*
X176614286Y-78452381D01*
X176900000Y-78452381D02*
X176900000Y-77452381D01*
X176804762Y-77595238D01*
X176709524Y-77690476D01*
X176614286Y-77738095D01*
X177804762Y-77452381D02*
X177900001Y-77452381D01*
X177995239Y-77500000D01*
X178042858Y-77547619D01*
X178090477Y-77642857D01*
X178138096Y-77833333D01*
X178138096Y-78071429D01*
X178090477Y-78261905D01*
X178042858Y-78357143D01*
X177995239Y-78404762D01*
X177900001Y-78452381D01*
X177804762Y-78452381D01*
X177709524Y-78404762D01*
X177661905Y-78357143D01*
X177614286Y-78261905D01*
X177566667Y-78071429D01*
X177566667Y-77833333D01*
X177614286Y-77642857D01*
X177661905Y-77547619D01*
X177709524Y-77500000D01*
X177804762Y-77452381D01*
X183357143Y-113119047D02*
X183404762Y-113166666D01*
X183452381Y-113309523D01*
X183452381Y-113404761D01*
X183404762Y-113547619D01*
X183309524Y-113642857D01*
X183214286Y-113690476D01*
X183023810Y-113738095D01*
X182880952Y-113738095D01*
X182690476Y-113690476D01*
X182595238Y-113642857D01*
X182500000Y-113547619D01*
X182452381Y-113404761D01*
X182452381Y-113309523D01*
X182500000Y-113166666D01*
X182547619Y-113119047D01*
X183452381Y-112166666D02*
X183452381Y-112738095D01*
X183452381Y-112452381D02*
X182452381Y-112452381D01*
X182595238Y-112547619D01*
X182690476Y-112642857D01*
X182738095Y-112738095D01*
X182547619Y-111785714D02*
X182500000Y-111738095D01*
X182452381Y-111642857D01*
X182452381Y-111404761D01*
X182500000Y-111309523D01*
X182547619Y-111261904D01*
X182642857Y-111214285D01*
X182738095Y-111214285D01*
X182880952Y-111261904D01*
X183452381Y-111833333D01*
X183452381Y-111214285D01*
X182452381Y-110595238D02*
X182452381Y-110499999D01*
X182500000Y-110404761D01*
X182547619Y-110357142D01*
X182642857Y-110309523D01*
X182833333Y-110261904D01*
X183071429Y-110261904D01*
X183261905Y-110309523D01*
X183357143Y-110357142D01*
X183404762Y-110404761D01*
X183452381Y-110499999D01*
X183452381Y-110595238D01*
X183404762Y-110690476D01*
X183357143Y-110738095D01*
X183261905Y-110785714D01*
X183071429Y-110833333D01*
X182833333Y-110833333D01*
X182642857Y-110785714D01*
X182547619Y-110738095D01*
X182500000Y-110690476D01*
X182452381Y-110595238D01*
X122280953Y-122557143D02*
X122233334Y-122604762D01*
X122090477Y-122652381D01*
X121995239Y-122652381D01*
X121852381Y-122604762D01*
X121757143Y-122509524D01*
X121709524Y-122414286D01*
X121661905Y-122223810D01*
X121661905Y-122080952D01*
X121709524Y-121890476D01*
X121757143Y-121795238D01*
X121852381Y-121700000D01*
X121995239Y-121652381D01*
X122090477Y-121652381D01*
X122233334Y-121700000D01*
X122280953Y-121747619D01*
X123233334Y-122652381D02*
X122661905Y-122652381D01*
X122947619Y-122652381D02*
X122947619Y-121652381D01*
X122852381Y-121795238D01*
X122757143Y-121890476D01*
X122661905Y-121938095D01*
X123566667Y-121652381D02*
X124185715Y-121652381D01*
X123852381Y-122033333D01*
X123995239Y-122033333D01*
X124090477Y-122080952D01*
X124138096Y-122128571D01*
X124185715Y-122223810D01*
X124185715Y-122461905D01*
X124138096Y-122557143D01*
X124090477Y-122604762D01*
X123995239Y-122652381D01*
X123709524Y-122652381D01*
X123614286Y-122604762D01*
X123566667Y-122557143D01*
X124804762Y-121652381D02*
X124900001Y-121652381D01*
X124995239Y-121700000D01*
X125042858Y-121747619D01*
X125090477Y-121842857D01*
X125138096Y-122033333D01*
X125138096Y-122271429D01*
X125090477Y-122461905D01*
X125042858Y-122557143D01*
X124995239Y-122604762D01*
X124900001Y-122652381D01*
X124804762Y-122652381D01*
X124709524Y-122604762D01*
X124661905Y-122557143D01*
X124614286Y-122461905D01*
X124566667Y-122271429D01*
X124566667Y-122033333D01*
X124614286Y-121842857D01*
X124661905Y-121747619D01*
X124709524Y-121700000D01*
X124804762Y-121652381D01*
X114109524Y-70252381D02*
X114109524Y-69252381D01*
X114347619Y-69252381D01*
X114490477Y-69300000D01*
X114585715Y-69395238D01*
X114633334Y-69490476D01*
X114680953Y-69680952D01*
X114680953Y-69823810D01*
X114633334Y-70014286D01*
X114585715Y-70109524D01*
X114490477Y-70204762D01*
X114347619Y-70252381D01*
X114109524Y-70252381D01*
X115633334Y-70252381D02*
X115061905Y-70252381D01*
X115347619Y-70252381D02*
X115347619Y-69252381D01*
X115252381Y-69395238D01*
X115157143Y-69490476D01*
X115061905Y-69538095D01*
X116252381Y-69252381D02*
X116347620Y-69252381D01*
X116442858Y-69300000D01*
X116490477Y-69347619D01*
X116538096Y-69442857D01*
X116585715Y-69633333D01*
X116585715Y-69871429D01*
X116538096Y-70061905D01*
X116490477Y-70157143D01*
X116442858Y-70204762D01*
X116347620Y-70252381D01*
X116252381Y-70252381D01*
X116157143Y-70204762D01*
X116109524Y-70157143D01*
X116061905Y-70061905D01*
X116014286Y-69871429D01*
X116014286Y-69633333D01*
X116061905Y-69442857D01*
X116109524Y-69347619D01*
X116157143Y-69300000D01*
X116252381Y-69252381D01*
X117204762Y-69252381D02*
X117300001Y-69252381D01*
X117395239Y-69300000D01*
X117442858Y-69347619D01*
X117490477Y-69442857D01*
X117538096Y-69633333D01*
X117538096Y-69871429D01*
X117490477Y-70061905D01*
X117442858Y-70157143D01*
X117395239Y-70204762D01*
X117300001Y-70252381D01*
X117204762Y-70252381D01*
X117109524Y-70204762D01*
X117061905Y-70157143D01*
X117014286Y-70061905D01*
X116966667Y-69871429D01*
X116966667Y-69633333D01*
X117014286Y-69442857D01*
X117061905Y-69347619D01*
X117109524Y-69300000D01*
X117204762Y-69252381D01*
X184109524Y-80652381D02*
X184109524Y-79652381D01*
X184347619Y-79652381D01*
X184490477Y-79700000D01*
X184585715Y-79795238D01*
X184633334Y-79890476D01*
X184680953Y-80080952D01*
X184680953Y-80223810D01*
X184633334Y-80414286D01*
X184585715Y-80509524D01*
X184490477Y-80604762D01*
X184347619Y-80652381D01*
X184109524Y-80652381D01*
X185633334Y-80652381D02*
X185061905Y-80652381D01*
X185347619Y-80652381D02*
X185347619Y-79652381D01*
X185252381Y-79795238D01*
X185157143Y-79890476D01*
X185061905Y-79938095D01*
X186585715Y-80652381D02*
X186014286Y-80652381D01*
X186300000Y-80652381D02*
X186300000Y-79652381D01*
X186204762Y-79795238D01*
X186109524Y-79890476D01*
X186014286Y-79938095D01*
X187204762Y-79652381D02*
X187300001Y-79652381D01*
X187395239Y-79700000D01*
X187442858Y-79747619D01*
X187490477Y-79842857D01*
X187538096Y-80033333D01*
X187538096Y-80271429D01*
X187490477Y-80461905D01*
X187442858Y-80557143D01*
X187395239Y-80604762D01*
X187300001Y-80652381D01*
X187204762Y-80652381D01*
X187109524Y-80604762D01*
X187061905Y-80557143D01*
X187014286Y-80461905D01*
X186966667Y-80271429D01*
X186966667Y-80033333D01*
X187014286Y-79842857D01*
X187061905Y-79747619D01*
X187109524Y-79700000D01*
X187204762Y-79652381D01*
X184509524Y-120852381D02*
X184509524Y-119852381D01*
X184747619Y-119852381D01*
X184890477Y-119900000D01*
X184985715Y-119995238D01*
X185033334Y-120090476D01*
X185080953Y-120280952D01*
X185080953Y-120423810D01*
X185033334Y-120614286D01*
X184985715Y-120709524D01*
X184890477Y-120804762D01*
X184747619Y-120852381D01*
X184509524Y-120852381D01*
X186033334Y-120852381D02*
X185461905Y-120852381D01*
X185747619Y-120852381D02*
X185747619Y-119852381D01*
X185652381Y-119995238D01*
X185557143Y-120090476D01*
X185461905Y-120138095D01*
X186414286Y-119947619D02*
X186461905Y-119900000D01*
X186557143Y-119852381D01*
X186795239Y-119852381D01*
X186890477Y-119900000D01*
X186938096Y-119947619D01*
X186985715Y-120042857D01*
X186985715Y-120138095D01*
X186938096Y-120280952D01*
X186366667Y-120852381D01*
X186985715Y-120852381D01*
X187604762Y-119852381D02*
X187700001Y-119852381D01*
X187795239Y-119900000D01*
X187842858Y-119947619D01*
X187890477Y-120042857D01*
X187938096Y-120233333D01*
X187938096Y-120471429D01*
X187890477Y-120661905D01*
X187842858Y-120757143D01*
X187795239Y-120804762D01*
X187700001Y-120852381D01*
X187604762Y-120852381D01*
X187509524Y-120804762D01*
X187461905Y-120757143D01*
X187414286Y-120661905D01*
X187366667Y-120471429D01*
X187366667Y-120233333D01*
X187414286Y-120042857D01*
X187461905Y-119947619D01*
X187509524Y-119900000D01*
X187604762Y-119852381D01*
X112509524Y-120652381D02*
X112509524Y-119652381D01*
X112747619Y-119652381D01*
X112890477Y-119700000D01*
X112985715Y-119795238D01*
X113033334Y-119890476D01*
X113080953Y-120080952D01*
X113080953Y-120223810D01*
X113033334Y-120414286D01*
X112985715Y-120509524D01*
X112890477Y-120604762D01*
X112747619Y-120652381D01*
X112509524Y-120652381D01*
X114033334Y-120652381D02*
X113461905Y-120652381D01*
X113747619Y-120652381D02*
X113747619Y-119652381D01*
X113652381Y-119795238D01*
X113557143Y-119890476D01*
X113461905Y-119938095D01*
X114366667Y-119652381D02*
X114985715Y-119652381D01*
X114652381Y-120033333D01*
X114795239Y-120033333D01*
X114890477Y-120080952D01*
X114938096Y-120128571D01*
X114985715Y-120223810D01*
X114985715Y-120461905D01*
X114938096Y-120557143D01*
X114890477Y-120604762D01*
X114795239Y-120652381D01*
X114509524Y-120652381D01*
X114414286Y-120604762D01*
X114366667Y-120557143D01*
X115604762Y-119652381D02*
X115700001Y-119652381D01*
X115795239Y-119700000D01*
X115842858Y-119747619D01*
X115890477Y-119842857D01*
X115938096Y-120033333D01*
X115938096Y-120271429D01*
X115890477Y-120461905D01*
X115842858Y-120557143D01*
X115795239Y-120604762D01*
X115700001Y-120652381D01*
X115604762Y-120652381D01*
X115509524Y-120604762D01*
X115461905Y-120557143D01*
X115414286Y-120461905D01*
X115366667Y-120271429D01*
X115366667Y-120033333D01*
X115414286Y-119842857D01*
X115461905Y-119747619D01*
X115509524Y-119700000D01*
X115604762Y-119652381D01*
X117852381Y-88319047D02*
X117376190Y-88652381D01*
X117852381Y-88890476D02*
X116852381Y-88890476D01*
X116852381Y-88509523D01*
X116900000Y-88414285D01*
X116947619Y-88366666D01*
X117042857Y-88319047D01*
X117185714Y-88319047D01*
X117280952Y-88366666D01*
X117328571Y-88414285D01*
X117376190Y-88509523D01*
X117376190Y-88890476D01*
X117852381Y-87366666D02*
X117852381Y-87938095D01*
X117852381Y-87652381D02*
X116852381Y-87652381D01*
X116995238Y-87747619D01*
X117090476Y-87842857D01*
X117138095Y-87938095D01*
X116852381Y-86747619D02*
X116852381Y-86652380D01*
X116900000Y-86557142D01*
X116947619Y-86509523D01*
X117042857Y-86461904D01*
X117233333Y-86414285D01*
X117471429Y-86414285D01*
X117661905Y-86461904D01*
X117757143Y-86509523D01*
X117804762Y-86557142D01*
X117852381Y-86652380D01*
X117852381Y-86747619D01*
X117804762Y-86842857D01*
X117757143Y-86890476D01*
X117661905Y-86938095D01*
X117471429Y-86985714D01*
X117233333Y-86985714D01*
X117042857Y-86938095D01*
X116947619Y-86890476D01*
X116900000Y-86842857D01*
X116852381Y-86747619D01*
X116852381Y-85795238D02*
X116852381Y-85699999D01*
X116900000Y-85604761D01*
X116947619Y-85557142D01*
X117042857Y-85509523D01*
X117233333Y-85461904D01*
X117471429Y-85461904D01*
X117661905Y-85509523D01*
X117757143Y-85557142D01*
X117804762Y-85604761D01*
X117852381Y-85699999D01*
X117852381Y-85795238D01*
X117804762Y-85890476D01*
X117757143Y-85938095D01*
X117661905Y-85985714D01*
X117471429Y-86033333D01*
X117233333Y-86033333D01*
X117042857Y-85985714D01*
X116947619Y-85938095D01*
X116900000Y-85890476D01*
X116852381Y-85795238D01*
X112452381Y-92119047D02*
X111976190Y-92452381D01*
X112452381Y-92690476D02*
X111452381Y-92690476D01*
X111452381Y-92309523D01*
X111500000Y-92214285D01*
X111547619Y-92166666D01*
X111642857Y-92119047D01*
X111785714Y-92119047D01*
X111880952Y-92166666D01*
X111928571Y-92214285D01*
X111976190Y-92309523D01*
X111976190Y-92690476D01*
X112452381Y-91166666D02*
X112452381Y-91738095D01*
X112452381Y-91452381D02*
X111452381Y-91452381D01*
X111595238Y-91547619D01*
X111690476Y-91642857D01*
X111738095Y-91738095D01*
X111452381Y-90547619D02*
X111452381Y-90452380D01*
X111500000Y-90357142D01*
X111547619Y-90309523D01*
X111642857Y-90261904D01*
X111833333Y-90214285D01*
X112071429Y-90214285D01*
X112261905Y-90261904D01*
X112357143Y-90309523D01*
X112404762Y-90357142D01*
X112452381Y-90452380D01*
X112452381Y-90547619D01*
X112404762Y-90642857D01*
X112357143Y-90690476D01*
X112261905Y-90738095D01*
X112071429Y-90785714D01*
X111833333Y-90785714D01*
X111642857Y-90738095D01*
X111547619Y-90690476D01*
X111500000Y-90642857D01*
X111452381Y-90547619D01*
X112452381Y-89261904D02*
X112452381Y-89833333D01*
X112452381Y-89547619D02*
X111452381Y-89547619D01*
X111595238Y-89642857D01*
X111690476Y-89738095D01*
X111738095Y-89833333D01*
X175280953Y-80052381D02*
X174947619Y-79576190D01*
X174709524Y-80052381D02*
X174709524Y-79052381D01*
X175090477Y-79052381D01*
X175185715Y-79100000D01*
X175233334Y-79147619D01*
X175280953Y-79242857D01*
X175280953Y-79385714D01*
X175233334Y-79480952D01*
X175185715Y-79528571D01*
X175090477Y-79576190D01*
X174709524Y-79576190D01*
X176233334Y-80052381D02*
X175661905Y-80052381D01*
X175947619Y-80052381D02*
X175947619Y-79052381D01*
X175852381Y-79195238D01*
X175757143Y-79290476D01*
X175661905Y-79338095D01*
X177185715Y-80052381D02*
X176614286Y-80052381D01*
X176900000Y-80052381D02*
X176900000Y-79052381D01*
X176804762Y-79195238D01*
X176709524Y-79290476D01*
X176614286Y-79338095D01*
X177804762Y-79052381D02*
X177900001Y-79052381D01*
X177995239Y-79100000D01*
X178042858Y-79147619D01*
X178090477Y-79242857D01*
X178138096Y-79433333D01*
X178138096Y-79671429D01*
X178090477Y-79861905D01*
X178042858Y-79957143D01*
X177995239Y-80004762D01*
X177900001Y-80052381D01*
X177804762Y-80052381D01*
X177709524Y-80004762D01*
X177661905Y-79957143D01*
X177614286Y-79861905D01*
X177566667Y-79671429D01*
X177566667Y-79433333D01*
X177614286Y-79242857D01*
X177661905Y-79147619D01*
X177709524Y-79100000D01*
X177804762Y-79052381D01*
X172080953Y-74852381D02*
X171747619Y-74376190D01*
X171509524Y-74852381D02*
X171509524Y-73852381D01*
X171890477Y-73852381D01*
X171985715Y-73900000D01*
X172033334Y-73947619D01*
X172080953Y-74042857D01*
X172080953Y-74185714D01*
X172033334Y-74280952D01*
X171985715Y-74328571D01*
X171890477Y-74376190D01*
X171509524Y-74376190D01*
X173033334Y-74852381D02*
X172461905Y-74852381D01*
X172747619Y-74852381D02*
X172747619Y-73852381D01*
X172652381Y-73995238D01*
X172557143Y-74090476D01*
X172461905Y-74138095D01*
X173985715Y-74852381D02*
X173414286Y-74852381D01*
X173700000Y-74852381D02*
X173700000Y-73852381D01*
X173604762Y-73995238D01*
X173509524Y-74090476D01*
X173414286Y-74138095D01*
X174938096Y-74852381D02*
X174366667Y-74852381D01*
X174652381Y-74852381D02*
X174652381Y-73852381D01*
X174557143Y-73995238D01*
X174461905Y-74090476D01*
X174366667Y-74138095D01*
X181652381Y-113119047D02*
X181176190Y-113452381D01*
X181652381Y-113690476D02*
X180652381Y-113690476D01*
X180652381Y-113309523D01*
X180700000Y-113214285D01*
X180747619Y-113166666D01*
X180842857Y-113119047D01*
X180985714Y-113119047D01*
X181080952Y-113166666D01*
X181128571Y-113214285D01*
X181176190Y-113309523D01*
X181176190Y-113690476D01*
X181652381Y-112166666D02*
X181652381Y-112738095D01*
X181652381Y-112452381D02*
X180652381Y-112452381D01*
X180795238Y-112547619D01*
X180890476Y-112642857D01*
X180938095Y-112738095D01*
X180747619Y-111785714D02*
X180700000Y-111738095D01*
X180652381Y-111642857D01*
X180652381Y-111404761D01*
X180700000Y-111309523D01*
X180747619Y-111261904D01*
X180842857Y-111214285D01*
X180938095Y-111214285D01*
X181080952Y-111261904D01*
X181652381Y-111833333D01*
X181652381Y-111214285D01*
X180652381Y-110595238D02*
X180652381Y-110499999D01*
X180700000Y-110404761D01*
X180747619Y-110357142D01*
X180842857Y-110309523D01*
X181033333Y-110261904D01*
X181271429Y-110261904D01*
X181461905Y-110309523D01*
X181557143Y-110357142D01*
X181604762Y-110404761D01*
X181652381Y-110499999D01*
X181652381Y-110595238D01*
X181604762Y-110690476D01*
X181557143Y-110738095D01*
X181461905Y-110785714D01*
X181271429Y-110833333D01*
X181033333Y-110833333D01*
X180842857Y-110785714D01*
X180747619Y-110738095D01*
X180700000Y-110690476D01*
X180652381Y-110595238D01*
X187052381Y-109719047D02*
X186576190Y-110052381D01*
X187052381Y-110290476D02*
X186052381Y-110290476D01*
X186052381Y-109909523D01*
X186100000Y-109814285D01*
X186147619Y-109766666D01*
X186242857Y-109719047D01*
X186385714Y-109719047D01*
X186480952Y-109766666D01*
X186528571Y-109814285D01*
X186576190Y-109909523D01*
X186576190Y-110290476D01*
X187052381Y-108766666D02*
X187052381Y-109338095D01*
X187052381Y-109052381D02*
X186052381Y-109052381D01*
X186195238Y-109147619D01*
X186290476Y-109242857D01*
X186338095Y-109338095D01*
X186147619Y-108385714D02*
X186100000Y-108338095D01*
X186052381Y-108242857D01*
X186052381Y-108004761D01*
X186100000Y-107909523D01*
X186147619Y-107861904D01*
X186242857Y-107814285D01*
X186338095Y-107814285D01*
X186480952Y-107861904D01*
X187052381Y-108433333D01*
X187052381Y-107814285D01*
X187052381Y-106861904D02*
X187052381Y-107433333D01*
X187052381Y-107147619D02*
X186052381Y-107147619D01*
X186195238Y-107242857D01*
X186290476Y-107338095D01*
X186338095Y-107433333D01*
X122280953Y-121252381D02*
X121947619Y-120776190D01*
X121709524Y-121252381D02*
X121709524Y-120252381D01*
X122090477Y-120252381D01*
X122185715Y-120300000D01*
X122233334Y-120347619D01*
X122280953Y-120442857D01*
X122280953Y-120585714D01*
X122233334Y-120680952D01*
X122185715Y-120728571D01*
X122090477Y-120776190D01*
X121709524Y-120776190D01*
X123233334Y-121252381D02*
X122661905Y-121252381D01*
X122947619Y-121252381D02*
X122947619Y-120252381D01*
X122852381Y-120395238D01*
X122757143Y-120490476D01*
X122661905Y-120538095D01*
X123566667Y-120252381D02*
X124185715Y-120252381D01*
X123852381Y-120633333D01*
X123995239Y-120633333D01*
X124090477Y-120680952D01*
X124138096Y-120728571D01*
X124185715Y-120823810D01*
X124185715Y-121061905D01*
X124138096Y-121157143D01*
X124090477Y-121204762D01*
X123995239Y-121252381D01*
X123709524Y-121252381D01*
X123614286Y-121204762D01*
X123566667Y-121157143D01*
X124804762Y-120252381D02*
X124900001Y-120252381D01*
X124995239Y-120300000D01*
X125042858Y-120347619D01*
X125090477Y-120442857D01*
X125138096Y-120633333D01*
X125138096Y-120871429D01*
X125090477Y-121061905D01*
X125042858Y-121157143D01*
X124995239Y-121204762D01*
X124900001Y-121252381D01*
X124804762Y-121252381D01*
X124709524Y-121204762D01*
X124661905Y-121157143D01*
X124614286Y-121061905D01*
X124566667Y-120871429D01*
X124566667Y-120633333D01*
X124614286Y-120442857D01*
X124661905Y-120347619D01*
X124709524Y-120300000D01*
X124804762Y-120252381D01*
X125680953Y-126652381D02*
X125347619Y-126176190D01*
X125109524Y-126652381D02*
X125109524Y-125652381D01*
X125490477Y-125652381D01*
X125585715Y-125700000D01*
X125633334Y-125747619D01*
X125680953Y-125842857D01*
X125680953Y-125985714D01*
X125633334Y-126080952D01*
X125585715Y-126128571D01*
X125490477Y-126176190D01*
X125109524Y-126176190D01*
X126633334Y-126652381D02*
X126061905Y-126652381D01*
X126347619Y-126652381D02*
X126347619Y-125652381D01*
X126252381Y-125795238D01*
X126157143Y-125890476D01*
X126061905Y-125938095D01*
X126966667Y-125652381D02*
X127585715Y-125652381D01*
X127252381Y-126033333D01*
X127395239Y-126033333D01*
X127490477Y-126080952D01*
X127538096Y-126128571D01*
X127585715Y-126223810D01*
X127585715Y-126461905D01*
X127538096Y-126557143D01*
X127490477Y-126604762D01*
X127395239Y-126652381D01*
X127109524Y-126652381D01*
X127014286Y-126604762D01*
X126966667Y-126557143D01*
X128538096Y-126652381D02*
X127966667Y-126652381D01*
X128252381Y-126652381D02*
X128252381Y-125652381D01*
X128157143Y-125795238D01*
X128061905Y-125890476D01*
X127966667Y-125938095D01*
X118085714Y-127852381D02*
X118085714Y-128661905D01*
X118133333Y-128757143D01*
X118180952Y-128804762D01*
X118276190Y-128852381D01*
X118466667Y-128852381D01*
X118561905Y-128804762D01*
X118609524Y-128757143D01*
X118657143Y-128661905D01*
X118657143Y-127852381D01*
X119657143Y-128852381D02*
X119085714Y-128852381D01*
X119371428Y-128852381D02*
X119371428Y-127852381D01*
X119276190Y-127995238D01*
X119180952Y-128090476D01*
X119085714Y-128138095D01*
X119990476Y-127852381D02*
X120609524Y-127852381D01*
X120276190Y-128233333D01*
X120419048Y-128233333D01*
X120514286Y-128280952D01*
X120561905Y-128328571D01*
X120609524Y-128423810D01*
X120609524Y-128661905D01*
X120561905Y-128757143D01*
X120514286Y-128804762D01*
X120419048Y-128852381D01*
X120133333Y-128852381D01*
X120038095Y-128804762D01*
X119990476Y-128757143D01*
X121228571Y-127852381D02*
X121323810Y-127852381D01*
X121419048Y-127900000D01*
X121466667Y-127947619D01*
X121514286Y-128042857D01*
X121561905Y-128233333D01*
X121561905Y-128471429D01*
X121514286Y-128661905D01*
X121466667Y-128757143D01*
X121419048Y-128804762D01*
X121323810Y-128852381D01*
X121228571Y-128852381D01*
X121133333Y-128804762D01*
X121085714Y-128757143D01*
X121038095Y-128661905D01*
X120990476Y-128471429D01*
X120990476Y-128233333D01*
X121038095Y-128042857D01*
X121085714Y-127947619D01*
X121133333Y-127900000D01*
X121228571Y-127852381D01*
X188252381Y-117114286D02*
X189061905Y-117114286D01*
X189157143Y-117066667D01*
X189204762Y-117019048D01*
X189252381Y-116923810D01*
X189252381Y-116733333D01*
X189204762Y-116638095D01*
X189157143Y-116590476D01*
X189061905Y-116542857D01*
X188252381Y-116542857D01*
X189252381Y-115542857D02*
X189252381Y-116114286D01*
X189252381Y-115828572D02*
X188252381Y-115828572D01*
X188395238Y-115923810D01*
X188490476Y-116019048D01*
X188538095Y-116114286D01*
X188347619Y-115161905D02*
X188300000Y-115114286D01*
X188252381Y-115019048D01*
X188252381Y-114780952D01*
X188300000Y-114685714D01*
X188347619Y-114638095D01*
X188442857Y-114590476D01*
X188538095Y-114590476D01*
X188680952Y-114638095D01*
X189252381Y-115209524D01*
X189252381Y-114590476D01*
X188252381Y-113971429D02*
X188252381Y-113876190D01*
X188300000Y-113780952D01*
X188347619Y-113733333D01*
X188442857Y-113685714D01*
X188633333Y-113638095D01*
X188871429Y-113638095D01*
X189061905Y-113685714D01*
X189157143Y-113733333D01*
X189204762Y-113780952D01*
X189252381Y-113876190D01*
X189252381Y-113971429D01*
X189204762Y-114066667D01*
X189157143Y-114114286D01*
X189061905Y-114161905D01*
X188871429Y-114209524D01*
X188633333Y-114209524D01*
X188442857Y-114161905D01*
X188347619Y-114114286D01*
X188300000Y-114066667D01*
X188252381Y-113971429D01*
X178285714Y-71452381D02*
X178285714Y-72261905D01*
X178333333Y-72357143D01*
X178380952Y-72404762D01*
X178476190Y-72452381D01*
X178666667Y-72452381D01*
X178761905Y-72404762D01*
X178809524Y-72357143D01*
X178857143Y-72261905D01*
X178857143Y-71452381D01*
X179857143Y-72452381D02*
X179285714Y-72452381D01*
X179571428Y-72452381D02*
X179571428Y-71452381D01*
X179476190Y-71595238D01*
X179380952Y-71690476D01*
X179285714Y-71738095D01*
X180809524Y-72452381D02*
X180238095Y-72452381D01*
X180523809Y-72452381D02*
X180523809Y-71452381D01*
X180428571Y-71595238D01*
X180333333Y-71690476D01*
X180238095Y-71738095D01*
X181428571Y-71452381D02*
X181523810Y-71452381D01*
X181619048Y-71500000D01*
X181666667Y-71547619D01*
X181714286Y-71642857D01*
X181761905Y-71833333D01*
X181761905Y-72071429D01*
X181714286Y-72261905D01*
X181666667Y-72357143D01*
X181619048Y-72404762D01*
X181523810Y-72452381D01*
X181428571Y-72452381D01*
X181333333Y-72404762D01*
X181285714Y-72357143D01*
X181238095Y-72261905D01*
X181190476Y-72071429D01*
X181190476Y-71833333D01*
X181238095Y-71642857D01*
X181285714Y-71547619D01*
X181333333Y-71500000D01*
X181428571Y-71452381D01*
X114885714Y-80452381D02*
X114885714Y-81261905D01*
X114933333Y-81357143D01*
X114980952Y-81404762D01*
X115076190Y-81452381D01*
X115266667Y-81452381D01*
X115361905Y-81404762D01*
X115409524Y-81357143D01*
X115457143Y-81261905D01*
X115457143Y-80452381D01*
X116457143Y-81452381D02*
X115885714Y-81452381D01*
X116171428Y-81452381D02*
X116171428Y-80452381D01*
X116076190Y-80595238D01*
X115980952Y-80690476D01*
X115885714Y-80738095D01*
X117076190Y-80452381D02*
X117171429Y-80452381D01*
X117266667Y-80500000D01*
X117314286Y-80547619D01*
X117361905Y-80642857D01*
X117409524Y-80833333D01*
X117409524Y-81071429D01*
X117361905Y-81261905D01*
X117314286Y-81357143D01*
X117266667Y-81404762D01*
X117171429Y-81452381D01*
X117076190Y-81452381D01*
X116980952Y-81404762D01*
X116933333Y-81357143D01*
X116885714Y-81261905D01*
X116838095Y-81071429D01*
X116838095Y-80833333D01*
X116885714Y-80642857D01*
X116933333Y-80547619D01*
X116980952Y-80500000D01*
X117076190Y-80452381D01*
X118028571Y-80452381D02*
X118123810Y-80452381D01*
X118219048Y-80500000D01*
X118266667Y-80547619D01*
X118314286Y-80642857D01*
X118361905Y-80833333D01*
X118361905Y-81071429D01*
X118314286Y-81261905D01*
X118266667Y-81357143D01*
X118219048Y-81404762D01*
X118123810Y-81452381D01*
X118028571Y-81452381D01*
X117933333Y-81404762D01*
X117885714Y-81357143D01*
X117838095Y-81261905D01*
X117790476Y-81071429D01*
X117790476Y-80833333D01*
X117838095Y-80642857D01*
X117885714Y-80547619D01*
X117933333Y-80500000D01*
X118028571Y-80452381D01*
M02*
