G04 #@! TF.FileFunction,Legend,Bot*
%FSLAX46Y46*%
G04 Gerber Fmt 4.6, Leading zero omitted, Abs format (unit mm)*
G04 Created by KiCad (PCBNEW 4.0.7-e2-6376~58~ubuntu16.04.1) date Mon Apr 23 10:52:02 2018*
%MOMM*%
%LPD*%
G01*
G04 APERTURE LIST*
%ADD10C,0.100000*%
%ADD11C,0.300000*%
G04 APERTURE END LIST*
D10*
D11*
X154957143Y-70450000D02*
X155100000Y-70378571D01*
X155314286Y-70378571D01*
X155528571Y-70450000D01*
X155671429Y-70592857D01*
X155742857Y-70735714D01*
X155814286Y-71021429D01*
X155814286Y-71235714D01*
X155742857Y-71521429D01*
X155671429Y-71664286D01*
X155528571Y-71807143D01*
X155314286Y-71878571D01*
X155171429Y-71878571D01*
X154957143Y-71807143D01*
X154885714Y-71735714D01*
X154885714Y-71235714D01*
X155171429Y-71235714D01*
X154242857Y-71878571D02*
X154242857Y-70378571D01*
X153671429Y-70378571D01*
X153528571Y-70450000D01*
X153457143Y-70521429D01*
X153385714Y-70664286D01*
X153385714Y-70878571D01*
X153457143Y-71021429D01*
X153528571Y-71092857D01*
X153671429Y-71164286D01*
X154242857Y-71164286D01*
X152814286Y-71807143D02*
X152600000Y-71878571D01*
X152242857Y-71878571D01*
X152100000Y-71807143D01*
X152028571Y-71735714D01*
X151957143Y-71592857D01*
X151957143Y-71450000D01*
X152028571Y-71307143D01*
X152100000Y-71235714D01*
X152242857Y-71164286D01*
X152528571Y-71092857D01*
X152671429Y-71021429D01*
X152742857Y-70950000D01*
X152814286Y-70807143D01*
X152814286Y-70664286D01*
X152742857Y-70521429D01*
X152671429Y-70450000D01*
X152528571Y-70378571D01*
X152171429Y-70378571D01*
X151957143Y-70450000D01*
X149314286Y-71735714D02*
X149385715Y-71807143D01*
X149600001Y-71878571D01*
X149742858Y-71878571D01*
X149957143Y-71807143D01*
X150100001Y-71664286D01*
X150171429Y-71521429D01*
X150242858Y-71235714D01*
X150242858Y-71021429D01*
X150171429Y-70735714D01*
X150100001Y-70592857D01*
X149957143Y-70450000D01*
X149742858Y-70378571D01*
X149600001Y-70378571D01*
X149385715Y-70450000D01*
X149314286Y-70521429D01*
X148457143Y-71878571D02*
X148600001Y-71807143D01*
X148671429Y-71735714D01*
X148742858Y-71592857D01*
X148742858Y-71164286D01*
X148671429Y-71021429D01*
X148600001Y-70950000D01*
X148457143Y-70878571D01*
X148242858Y-70878571D01*
X148100001Y-70950000D01*
X148028572Y-71021429D01*
X147957143Y-71164286D01*
X147957143Y-71592857D01*
X148028572Y-71735714D01*
X148100001Y-71807143D01*
X148242858Y-71878571D01*
X148457143Y-71878571D01*
X146671429Y-71878571D02*
X146671429Y-71092857D01*
X146742858Y-70950000D01*
X146885715Y-70878571D01*
X147171429Y-70878571D01*
X147314286Y-70950000D01*
X146671429Y-71807143D02*
X146814286Y-71878571D01*
X147171429Y-71878571D01*
X147314286Y-71807143D01*
X147385715Y-71664286D01*
X147385715Y-71521429D01*
X147314286Y-71378571D01*
X147171429Y-71307143D01*
X146814286Y-71307143D01*
X146671429Y-71235714D01*
X146100000Y-71878571D02*
X145314286Y-70878571D01*
X146100000Y-70878571D02*
X145314286Y-71878571D01*
M02*
