G04 #@! TF.FileFunction,Copper,L1,Top,Signal*
%FSLAX46Y46*%
G04 Gerber Fmt 4.6, Leading zero omitted, Abs format (unit mm)*
G04 Created by KiCad (PCBNEW 4.0.7-e2-6376~58~ubuntu16.04.1) date Thu Mar 22 00:24:48 2018*
%MOMM*%
%LPD*%
G01*
G04 APERTURE LIST*
%ADD10C,0.100000*%
%ADD11R,0.300000X0.700000*%
%ADD12R,0.300000X1.000000*%
%ADD13C,1.524000*%
%ADD14R,0.500000X0.600000*%
%ADD15R,0.600000X0.500000*%
%ADD16R,1.200000X1.400000*%
%ADD17R,2.000000X1.400000*%
%ADD18C,6.350000*%
%ADD19R,0.600000X0.400000*%
%ADD20R,0.400000X0.600000*%
%ADD21C,0.600000*%
%ADD22C,0.970000*%
%ADD23R,1.450000X0.450000*%
%ADD24R,0.450000X1.450000*%
%ADD25C,0.500000*%
%ADD26C,0.250000*%
%ADD27C,0.800000*%
G04 APERTURE END LIST*
D10*
D11*
X149750000Y-127000000D03*
X149250000Y-127000000D03*
X148750000Y-127000000D03*
X148250000Y-127000000D03*
X147750000Y-127000000D03*
X147250000Y-127000000D03*
X146750000Y-127000000D03*
X153250000Y-127000000D03*
X151750000Y-127000000D03*
X152250000Y-127000000D03*
X152750000Y-127000000D03*
X151250000Y-127000000D03*
X150750000Y-127000000D03*
X150250000Y-127000000D03*
D12*
X145960000Y-129650000D03*
X154040000Y-129650000D03*
D13*
X152000000Y-103000000D03*
D14*
X116000000Y-84550000D03*
X116000000Y-83450000D03*
D15*
X179450000Y-78000000D03*
X180550000Y-78000000D03*
D14*
X182800000Y-114850000D03*
X182800000Y-115950000D03*
D15*
X120350000Y-122200000D03*
X119250000Y-122200000D03*
D16*
X114200000Y-78050000D03*
D17*
X114200000Y-71950000D03*
D16*
X185800000Y-71950000D03*
D17*
X185800000Y-78050000D03*
D16*
X186200000Y-122150000D03*
D17*
X186200000Y-128250000D03*
D16*
X114200000Y-128450000D03*
D17*
X114200000Y-122350000D03*
D18*
X114000000Y-136000000D03*
X186000000Y-136000000D03*
X114000000Y-64000000D03*
X186000000Y-64000000D03*
D19*
X117400000Y-84450000D03*
X117400000Y-83550000D03*
D20*
X112650000Y-88000000D03*
X111750000Y-88000000D03*
X179550000Y-79400000D03*
X180450000Y-79400000D03*
D19*
X176000000Y-74650000D03*
X176000000Y-73750000D03*
X181400000Y-114950000D03*
X181400000Y-115850000D03*
D20*
X186150000Y-111400000D03*
X187050000Y-111400000D03*
X120250000Y-120800000D03*
X119350000Y-120800000D03*
D19*
X123800000Y-125750000D03*
X123800000Y-126650000D03*
X144800000Y-121750000D03*
X144800000Y-122650000D03*
X151200000Y-121750000D03*
X151200000Y-122650000D03*
X146200000Y-121750000D03*
X146200000Y-122650000D03*
X152600000Y-121750000D03*
X152600000Y-122650000D03*
X147600000Y-121750000D03*
X147600000Y-122650000D03*
X154000000Y-121750000D03*
X154000000Y-122650000D03*
X149000000Y-121750000D03*
X149000000Y-122650000D03*
X155400000Y-121750000D03*
X155400000Y-122650000D03*
D21*
X148260000Y-66600000D03*
D22*
X149600000Y-66600000D03*
X146800000Y-66600000D03*
D23*
X117600000Y-125075000D03*
X117600000Y-124425000D03*
X117600000Y-125725000D03*
X117600000Y-126375000D03*
X122000000Y-124425000D03*
X122000000Y-125075000D03*
X122000000Y-125725000D03*
X122000000Y-126375000D03*
D24*
X185475000Y-117600000D03*
X184825000Y-117600000D03*
X186125000Y-117600000D03*
X186775000Y-117600000D03*
X184825000Y-113200000D03*
X185475000Y-113200000D03*
X186125000Y-113200000D03*
X186775000Y-113200000D03*
D23*
X182200000Y-75325000D03*
X182200000Y-75975000D03*
X182200000Y-74675000D03*
X182200000Y-74025000D03*
X177800000Y-75975000D03*
X177800000Y-75325000D03*
X177800000Y-74675000D03*
X177800000Y-74025000D03*
D24*
X113325000Y-81800000D03*
X113975000Y-81800000D03*
X112675000Y-81800000D03*
X112025000Y-81800000D03*
X113975000Y-86200000D03*
X113325000Y-86200000D03*
X112675000Y-86200000D03*
X112025000Y-86200000D03*
D21*
X113000000Y-106000000D03*
X115000000Y-108000000D03*
X151200000Y-120800000D03*
X143600000Y-121200000D03*
X152600000Y-120800000D03*
X146000000Y-119800000D03*
X155400000Y-120800000D03*
X149000000Y-119000000D03*
X131800000Y-125800000D03*
X179200000Y-110800000D03*
X150000000Y-126000000D03*
X147000000Y-125600000D03*
X152800000Y-125600000D03*
X155000000Y-129600000D03*
X145000000Y-129800000D03*
X114200000Y-126600000D03*
X116000000Y-126400000D03*
X119200000Y-125400000D03*
X123800000Y-127600000D03*
X188000000Y-111400000D03*
X186200000Y-124000000D03*
X186000000Y-116000000D03*
X176000000Y-72800000D03*
X110800000Y-88000000D03*
X185800000Y-73800000D03*
X114200000Y-76200000D03*
X183800000Y-74000000D03*
X180600000Y-74800000D03*
X112800000Y-83400000D03*
X185000000Y-111800000D03*
X153200000Y-128200000D03*
X145400000Y-126200000D03*
X175575736Y-76200000D03*
D25*
X112650000Y-88750000D02*
X112650000Y-105650000D01*
X112650000Y-105650000D02*
X113000000Y-106000000D01*
X131160037Y-121750000D02*
X128750000Y-121750000D01*
X128750000Y-121750000D02*
X115000000Y-108000000D01*
D26*
X144800000Y-121750000D02*
X143550000Y-121750000D01*
X151200000Y-121750000D02*
X151200000Y-120800000D01*
D25*
X143550000Y-121750000D02*
X143550000Y-121250000D01*
X143550000Y-121250000D02*
X143600000Y-121200000D01*
X131160037Y-121750000D02*
X143550000Y-121750000D01*
D26*
X112650000Y-88000000D02*
X112650000Y-88750000D01*
X112650000Y-88000000D02*
X112650000Y-86225000D01*
X112650000Y-86225000D02*
X112675000Y-86200000D01*
X112675000Y-86200000D02*
X112675000Y-85225000D01*
X112675000Y-85225000D02*
X113350000Y-84550000D01*
X113350000Y-84550000D02*
X115500000Y-84550000D01*
X115500000Y-84550000D02*
X116000000Y-84550000D01*
X117400000Y-84450000D02*
X116100000Y-84450000D01*
X116100000Y-84450000D02*
X116000000Y-84550000D01*
X113325000Y-81800000D02*
X113325000Y-80325000D01*
X113325000Y-80325000D02*
X113000000Y-80000000D01*
D27*
X112000000Y-79000000D02*
X113000000Y-80000000D01*
X112000000Y-75650000D02*
X112000000Y-79000000D01*
X114200000Y-71950000D02*
X114200000Y-73450000D01*
X114200000Y-73450000D02*
X112000000Y-75650000D01*
D26*
X116000000Y-83450000D02*
X117300000Y-83450000D01*
X117300000Y-83450000D02*
X117400000Y-83550000D01*
X113325000Y-81800000D02*
X113325000Y-82685002D01*
X113325000Y-82685002D02*
X114089998Y-83450000D01*
X114089998Y-83450000D02*
X115500000Y-83450000D01*
X115500000Y-83450000D02*
X116000000Y-83450000D01*
D25*
X146000000Y-119800000D02*
X148400000Y-117400000D01*
X148400000Y-117400000D02*
X155610038Y-117400000D01*
X155610038Y-117400000D02*
X158610038Y-114400000D01*
X158610038Y-114400000D02*
X170200000Y-114400000D01*
X170200000Y-114400000D02*
X179550000Y-105050000D01*
X179550000Y-105050000D02*
X179550000Y-79400000D01*
D26*
X152600000Y-121750000D02*
X152600000Y-120800000D01*
X146200000Y-121750000D02*
X146200000Y-121300000D01*
X146200000Y-121300000D02*
X145600000Y-120700000D01*
X145600000Y-120700000D02*
X145600000Y-120200000D01*
D25*
X145600000Y-120200000D02*
X146000000Y-119800000D01*
D26*
X176000000Y-74650000D02*
X174950000Y-74650000D01*
X176000000Y-74650000D02*
X177775000Y-74650000D01*
X177775000Y-74650000D02*
X177800000Y-74675000D01*
X177800000Y-74675000D02*
X178775000Y-74675000D01*
X178775000Y-74675000D02*
X179450000Y-75350000D01*
X179450000Y-75350000D02*
X179450000Y-77500000D01*
X179450000Y-77500000D02*
X179450000Y-78000000D01*
X179550000Y-79400000D02*
X179550000Y-78100000D01*
X179550000Y-78100000D02*
X179450000Y-78000000D01*
X185800000Y-78050000D02*
X185800000Y-77100000D01*
X185800000Y-77100000D02*
X184025000Y-75325000D01*
X184025000Y-75325000D02*
X183175000Y-75325000D01*
X183175000Y-75325000D02*
X182200000Y-75325000D01*
X180550000Y-78000000D02*
X180550000Y-79300000D01*
X180550000Y-79300000D02*
X180450000Y-79400000D01*
X182200000Y-75325000D02*
X181314998Y-75325000D01*
X181314998Y-75325000D02*
X180550000Y-76089998D01*
X180550000Y-76089998D02*
X180550000Y-77500000D01*
X180550000Y-77500000D02*
X180550000Y-78000000D01*
D25*
X154649999Y-118249999D02*
X155750001Y-118249999D01*
X155750001Y-118249999D02*
X158800000Y-115200000D01*
X158800000Y-115200000D02*
X180350000Y-115200000D01*
X180350000Y-115200000D02*
X180600000Y-114950000D01*
X180600000Y-114950000D02*
X181400000Y-114950000D01*
X156000000Y-119600000D02*
X154649999Y-118249999D01*
D26*
X154000000Y-121750000D02*
X154000000Y-121300000D01*
X155700000Y-119600000D02*
X156000000Y-119600000D01*
X154000000Y-121300000D02*
X155700000Y-119600000D01*
X147600000Y-121750000D02*
X147600000Y-120600000D01*
D25*
X147600000Y-119289998D02*
X147600000Y-120600000D01*
X154649999Y-118249999D02*
X148639999Y-118249999D01*
X148639999Y-118249999D02*
X147600000Y-119289998D01*
D26*
X186150000Y-111400000D02*
X186150000Y-113175000D01*
X186150000Y-113175000D02*
X186125000Y-113200000D01*
X186125000Y-113200000D02*
X186125000Y-114175000D01*
X186125000Y-114175000D02*
X185450000Y-114850000D01*
X185450000Y-114850000D02*
X183300000Y-114850000D01*
X183300000Y-114850000D02*
X182800000Y-114850000D01*
X181400000Y-114950000D02*
X182700000Y-114950000D01*
X182700000Y-114950000D02*
X182800000Y-114850000D01*
X185475000Y-117600000D02*
X185475000Y-118575000D01*
X185475000Y-118575000D02*
X185900000Y-119000000D01*
X185900000Y-119000000D02*
X186000000Y-119000000D01*
D25*
X188000000Y-121000000D02*
X186000000Y-119000000D01*
X186200000Y-127300000D02*
X188000000Y-125500000D01*
X188000000Y-125500000D02*
X188000000Y-121000000D01*
D26*
X186200000Y-128250000D02*
X186200000Y-127300000D01*
X182800000Y-115950000D02*
X181500000Y-115950000D01*
X181500000Y-115950000D02*
X181400000Y-115850000D01*
X185475000Y-117600000D02*
X185475000Y-116714998D01*
X185475000Y-116714998D02*
X184710002Y-115950000D01*
X184710002Y-115950000D02*
X183300000Y-115950000D01*
X183300000Y-115950000D02*
X182800000Y-115950000D01*
X149000000Y-121750000D02*
X149000000Y-121200000D01*
X155400000Y-121750000D02*
X155400000Y-121200000D01*
D25*
X155400000Y-120800000D02*
X155400000Y-121200000D01*
X149000000Y-119424264D02*
X149000000Y-121200000D01*
X149000000Y-119000000D02*
X149000000Y-119424264D01*
X124950000Y-125750000D02*
X131750000Y-125750000D01*
X131750000Y-125750000D02*
X131800000Y-125800000D01*
D26*
X123800000Y-125750000D02*
X124950000Y-125750000D01*
X122000000Y-125725000D02*
X123775000Y-125725000D01*
X123775000Y-125725000D02*
X123800000Y-125750000D01*
X120350000Y-122200000D02*
X120350000Y-125050000D01*
X120350000Y-125050000D02*
X121025000Y-125725000D01*
X121025000Y-125725000D02*
X122000000Y-125725000D01*
X120250000Y-120800000D02*
X120250000Y-122100000D01*
X120250000Y-122100000D02*
X120350000Y-122200000D01*
X114200000Y-122350000D02*
X114200000Y-123300000D01*
X114200000Y-123300000D02*
X115975000Y-125075000D01*
X115975000Y-125075000D02*
X116625000Y-125075000D01*
X116625000Y-125075000D02*
X117600000Y-125075000D01*
X119250000Y-122200000D02*
X119250000Y-120900000D01*
X119250000Y-120900000D02*
X119350000Y-120800000D01*
X117600000Y-125075000D02*
X118485002Y-125075000D01*
X119250000Y-124310002D02*
X119250000Y-122700000D01*
X119250000Y-122700000D02*
X119250000Y-122200000D01*
X118485002Y-125075000D02*
X119250000Y-124310002D01*
D25*
X112025000Y-81800000D02*
X112649999Y-81800000D01*
X188000000Y-111400000D02*
X187249999Y-110649999D01*
X187249999Y-110649999D02*
X179350001Y-110649999D01*
X179350001Y-110649999D02*
X179200000Y-110800000D01*
D26*
X186775000Y-117600000D02*
X186125000Y-117600000D01*
X150250000Y-127000000D02*
X150250000Y-126250000D01*
X150250000Y-126250000D02*
X150000000Y-126000000D01*
X149750000Y-127000000D02*
X149750000Y-126250000D01*
X149750000Y-126250000D02*
X150000000Y-126000000D01*
X147250000Y-127000000D02*
X147250000Y-125850000D01*
X147250000Y-125850000D02*
X147000000Y-125600000D01*
X152750000Y-127000000D02*
X152750000Y-125650000D01*
X152750000Y-125650000D02*
X152800000Y-125600000D01*
X154040000Y-129650000D02*
X154950000Y-129650000D01*
X154950000Y-129650000D02*
X155000000Y-129600000D01*
X145960000Y-129650000D02*
X145150000Y-129650000D01*
X145150000Y-129650000D02*
X145000000Y-129800000D01*
X114200000Y-128450000D02*
X114200000Y-126600000D01*
X117600000Y-126375000D02*
X116025000Y-126375000D01*
X116025000Y-126375000D02*
X116000000Y-126400000D01*
X117600000Y-125725000D02*
X118875000Y-125725000D01*
X118875000Y-125725000D02*
X119200000Y-125400000D01*
X123800000Y-126650000D02*
X123800000Y-127600000D01*
X187050000Y-111400000D02*
X188000000Y-111400000D01*
X186200000Y-122150000D02*
X186200000Y-124000000D01*
X186125000Y-117600000D02*
X186125000Y-116125000D01*
X186125000Y-116125000D02*
X186000000Y-116000000D01*
X176000000Y-73750000D02*
X176000000Y-72800000D01*
X111750000Y-88000000D02*
X110800000Y-88000000D01*
X185800000Y-71950000D02*
X185800000Y-73800000D01*
X114200000Y-78050000D02*
X114200000Y-76200000D01*
X182200000Y-74025000D02*
X183775000Y-74025000D01*
X183775000Y-74025000D02*
X183800000Y-74000000D01*
X182200000Y-74675000D02*
X180725000Y-74675000D01*
X112675000Y-81800000D02*
X112675000Y-83275000D01*
X180725000Y-74675000D02*
X180600000Y-74800000D01*
X112675000Y-83275000D02*
X112800000Y-83400000D01*
D25*
X185000000Y-111800000D02*
X185299999Y-112099999D01*
X185299999Y-112099999D02*
X185349999Y-112099999D01*
X185349999Y-112099999D02*
X185475000Y-112225000D01*
X123600000Y-120600000D02*
X113950000Y-110950000D01*
X113950000Y-110950000D02*
X113950000Y-87800000D01*
X123600000Y-124800000D02*
X123600000Y-120600000D01*
D26*
X185475000Y-113200000D02*
X185475000Y-112225000D01*
X153250000Y-127000000D02*
X153250000Y-128150000D01*
X153250000Y-128150000D02*
X153200000Y-128200000D01*
X146750000Y-127000000D02*
X146200000Y-127000000D01*
X146200000Y-127000000D02*
X145400000Y-126200000D01*
D27*
X144000000Y-124800000D02*
X145400000Y-126200000D01*
X143800000Y-124800000D02*
X144000000Y-124800000D01*
X123600000Y-124800000D02*
X143800000Y-124800000D01*
D26*
X123250000Y-124800000D02*
X123600000Y-124800000D01*
X122000000Y-125075000D02*
X122975000Y-125075000D01*
X122975000Y-125075000D02*
X123250000Y-124800000D01*
X177800000Y-75325000D02*
X176450736Y-75325000D01*
X176450736Y-75325000D02*
X175575736Y-76200000D01*
X113325000Y-86200000D02*
X113325000Y-87175000D01*
X113325000Y-87175000D02*
X113950000Y-87800000D01*
X149250000Y-127000000D02*
X149250000Y-122900000D01*
X149250000Y-122900000D02*
X149000000Y-122650000D01*
X147600000Y-122650000D02*
X149000000Y-122650000D01*
X146200000Y-122650000D02*
X147600000Y-122650000D01*
X144800000Y-122650000D02*
X146200000Y-122650000D01*
X150750000Y-127000000D02*
X150750000Y-123100000D01*
X150750000Y-123100000D02*
X151200000Y-122650000D01*
X154000000Y-122650000D02*
X152600000Y-122650000D01*
X155400000Y-122650000D02*
X154000000Y-122650000D01*
X152600000Y-122650000D02*
X151200000Y-122650000D01*
M02*
