G04 #@! TF.FileFunction,Soldermask,Top*
%FSLAX46Y46*%
G04 Gerber Fmt 4.6, Leading zero omitted, Abs format (unit mm)*
G04 Created by KiCad (PCBNEW 4.0.7-e2-6376~58~ubuntu16.04.1) date Mon Apr 23 10:52:02 2018*
%MOMM*%
%LPD*%
G01*
G04 APERTURE LIST*
%ADD10C,0.100000*%
%ADD11C,1.040000*%
%ADD12R,0.340000X0.740000*%
%ADD13R,0.340000X1.040000*%
%ADD14C,1.564000*%
%ADD15R,0.540000X0.640000*%
%ADD16R,0.640000X0.540000*%
%ADD17R,1.240000X1.440000*%
%ADD18R,2.040000X1.440000*%
%ADD19C,6.390000*%
%ADD20R,0.640000X0.440000*%
%ADD21R,0.440000X0.640000*%
%ADD22C,1.760000*%
%ADD23C,1.800000*%
%ADD24R,1.490000X0.490000*%
%ADD25R,0.490000X1.490000*%
G04 APERTURE END LIST*
D10*
D11*
X148200000Y-63800000D03*
X150500000Y-68750000D03*
X156000000Y-133000000D03*
D12*
X149750000Y-127000000D03*
X149250000Y-127000000D03*
X148750000Y-127000000D03*
X148250000Y-127000000D03*
X147750000Y-127000000D03*
X147250000Y-127000000D03*
X146750000Y-127000000D03*
X153250000Y-127000000D03*
X151750000Y-127000000D03*
X152250000Y-127000000D03*
X152750000Y-127000000D03*
X151250000Y-127000000D03*
X150750000Y-127000000D03*
X150250000Y-127000000D03*
D13*
X145960000Y-129650000D03*
X154040000Y-129650000D03*
D14*
X152000000Y-103000000D03*
D15*
X116000000Y-84550000D03*
X116000000Y-83450000D03*
D16*
X179450000Y-78000000D03*
X180550000Y-78000000D03*
D15*
X182800000Y-114850000D03*
X182800000Y-115950000D03*
D16*
X120350000Y-122200000D03*
X119250000Y-122200000D03*
D17*
X114200000Y-78050000D03*
D18*
X114200000Y-71950000D03*
D17*
X185800000Y-71950000D03*
D18*
X185800000Y-78050000D03*
D17*
X186200000Y-122150000D03*
D18*
X186200000Y-128250000D03*
D17*
X114200000Y-128450000D03*
D18*
X114200000Y-122350000D03*
D19*
X114000000Y-136000000D03*
X186000000Y-136000000D03*
X114000000Y-64000000D03*
X186000000Y-64000000D03*
D20*
X117400000Y-84450000D03*
X117400000Y-83550000D03*
D21*
X112650000Y-88000000D03*
X111750000Y-88000000D03*
X179550000Y-79400000D03*
X180450000Y-79400000D03*
D20*
X176000000Y-74650000D03*
X176000000Y-73750000D03*
X181400000Y-114950000D03*
X181400000Y-115850000D03*
D21*
X186150000Y-111400000D03*
X187050000Y-111400000D03*
X120250000Y-120800000D03*
X119350000Y-120800000D03*
D20*
X123800000Y-125750000D03*
X123800000Y-126650000D03*
X144800000Y-121750000D03*
X144800000Y-122650000D03*
X151200000Y-121750000D03*
X151200000Y-122650000D03*
X146200000Y-121750000D03*
X146200000Y-122650000D03*
X152600000Y-121750000D03*
X152600000Y-122650000D03*
X147600000Y-121750000D03*
X147600000Y-122650000D03*
X154000000Y-121750000D03*
X154000000Y-122650000D03*
X149000000Y-121750000D03*
X149000000Y-122650000D03*
X155400000Y-121750000D03*
X155400000Y-122650000D03*
D11*
X144000000Y-133000000D03*
D22*
X148260000Y-66600000D03*
D11*
X146000000Y-68750000D03*
D22*
X150500000Y-66600000D03*
D23*
X146000000Y-66600000D03*
D24*
X117600000Y-125075000D03*
X117600000Y-124425000D03*
X117600000Y-125725000D03*
X117600000Y-126375000D03*
X122000000Y-124425000D03*
X122000000Y-125075000D03*
X122000000Y-125725000D03*
X122000000Y-126375000D03*
D25*
X185475000Y-117600000D03*
X184825000Y-117600000D03*
X186125000Y-117600000D03*
X186775000Y-117600000D03*
X184825000Y-113200000D03*
X185475000Y-113200000D03*
X186125000Y-113200000D03*
X186775000Y-113200000D03*
D24*
X182200000Y-75325000D03*
X182200000Y-75975000D03*
X182200000Y-74675000D03*
X182200000Y-74025000D03*
X177800000Y-75975000D03*
X177800000Y-75325000D03*
X177800000Y-74675000D03*
X177800000Y-74025000D03*
D25*
X113325000Y-81800000D03*
X113975000Y-81800000D03*
X112675000Y-81800000D03*
X112025000Y-81800000D03*
X113975000Y-86200000D03*
X113325000Y-86200000D03*
X112675000Y-86200000D03*
X112025000Y-86200000D03*
M02*
