G04 #@! TF.FileFunction,Copper,L2,Bot,Signal*
%FSLAX46Y46*%
G04 Gerber Fmt 4.6, Leading zero omitted, Abs format (unit mm)*
G04 Created by KiCad (PCBNEW 4.0.7-e2-6376~58~ubuntu16.04.1) date Thu Mar 22 00:24:48 2018*
%MOMM*%
%LPD*%
G01*
G04 APERTURE LIST*
%ADD10C,0.100000*%
%ADD11C,1.524000*%
%ADD12C,2.500000*%
%ADD13C,6.350000*%
%ADD14C,0.600000*%
%ADD15C,0.970000*%
%ADD16C,1.115380*%
%ADD17C,0.500000*%
%ADD18C,0.800000*%
%ADD19C,0.254000*%
G04 APERTURE END LIST*
D10*
D11*
X152000000Y-103000000D03*
D12*
X152000000Y-103000000D03*
D13*
X114000000Y-136000000D03*
X186000000Y-136000000D03*
X114000000Y-64000000D03*
X186000000Y-64000000D03*
D14*
X148260000Y-66600000D03*
D15*
X149600000Y-66600000D03*
X146800000Y-66600000D03*
D14*
X113000000Y-106000000D03*
X115000000Y-108000000D03*
X151200000Y-120800000D03*
X143600000Y-121200000D03*
X152600000Y-120800000D03*
X146000000Y-119800000D03*
X155400000Y-120800000D03*
X149000000Y-119000000D03*
X131800000Y-125800000D03*
X179200000Y-110800000D03*
X150000000Y-126000000D03*
X147000000Y-125600000D03*
X152800000Y-125600000D03*
X155000000Y-129600000D03*
X145000000Y-129800000D03*
X114200000Y-126600000D03*
X116000000Y-126400000D03*
X119200000Y-125400000D03*
X123800000Y-127600000D03*
X188000000Y-111400000D03*
X186200000Y-124000000D03*
X186000000Y-116000000D03*
X176000000Y-72800000D03*
X110800000Y-88000000D03*
X185800000Y-73800000D03*
X114200000Y-76200000D03*
X183800000Y-74000000D03*
X180600000Y-74800000D03*
X112800000Y-83400000D03*
X185000000Y-111800000D03*
X153200000Y-128200000D03*
X145400000Y-126200000D03*
X175575736Y-76200000D03*
D16*
X148260000Y-66600000D02*
X148260000Y-99260000D01*
X148260000Y-99260000D02*
X152000000Y-103000000D01*
D17*
X115000000Y-108000000D02*
X113000000Y-106000000D01*
X143600000Y-121200000D02*
X144000000Y-120800000D01*
X144000000Y-120800000D02*
X151200000Y-120800000D01*
X146000000Y-119800000D02*
X151600000Y-119800000D01*
X151600000Y-119800000D02*
X152600000Y-120800000D01*
X149000000Y-119000000D02*
X153600000Y-119000000D01*
X153600000Y-119000000D02*
X155400000Y-120800000D01*
X137899999Y-125500001D02*
X144400000Y-119000000D01*
X144400000Y-119000000D02*
X149000000Y-119000000D01*
X131800000Y-125800000D02*
X132099999Y-125500001D01*
X132099999Y-125500001D02*
X137899999Y-125500001D01*
X181000000Y-112000000D02*
X184800000Y-112000000D01*
X184800000Y-112000000D02*
X185000000Y-111800000D01*
D18*
X181000000Y-112000000D02*
X181000000Y-81624264D01*
X181000000Y-81624264D02*
X175575736Y-76200000D01*
X178000000Y-115000000D02*
X181000000Y-112000000D01*
X159000000Y-115000000D02*
X178000000Y-115000000D01*
X157000000Y-117000000D02*
X159000000Y-115000000D01*
X157000000Y-124400000D02*
X157000000Y-117000000D01*
X153200000Y-128200000D02*
X157000000Y-124400000D01*
X145400000Y-126200000D02*
X147400000Y-128200000D01*
X147400000Y-128200000D02*
X153200000Y-128200000D01*
D19*
G36*
X111863080Y-60755926D02*
X111820630Y-60784290D01*
X111456730Y-61277125D01*
X114000000Y-63820395D01*
X116543270Y-61277125D01*
X116179370Y-60784290D01*
X115273326Y-60402000D01*
X117960405Y-60402000D01*
X118608515Y-60530917D01*
X119124388Y-60875612D01*
X119469083Y-61391485D01*
X119598000Y-62039595D01*
X119598000Y-85000000D01*
X119605724Y-85038832D01*
X119605724Y-85078426D01*
X119757965Y-85843793D01*
X119817990Y-85988706D01*
X119873000Y-86071034D01*
X119873000Y-87000000D01*
X119883006Y-87049410D01*
X119911447Y-87091035D01*
X119953841Y-87118315D01*
X120000000Y-87127000D01*
X120928966Y-87127000D01*
X121011291Y-87182008D01*
X121011293Y-87182010D01*
X121156207Y-87242035D01*
X121921573Y-87394276D01*
X121961168Y-87394276D01*
X122000000Y-87402000D01*
X141000000Y-87402000D01*
X141038832Y-87394276D01*
X141078426Y-87394276D01*
X141843793Y-87242035D01*
X141988706Y-87182010D01*
X142071034Y-87127000D01*
X143000000Y-87127000D01*
X143049410Y-87116994D01*
X143091035Y-87088553D01*
X143118315Y-87046159D01*
X143127000Y-87000000D01*
X143127000Y-86071034D01*
X143182008Y-85988709D01*
X143182010Y-85988707D01*
X143242035Y-85843793D01*
X143394276Y-85078427D01*
X143394276Y-85038832D01*
X143402000Y-85000000D01*
X143402000Y-66763779D01*
X144372857Y-66763779D01*
X144498495Y-67067846D01*
X144730930Y-67300688D01*
X145034778Y-67426856D01*
X145363779Y-67427143D01*
X145667846Y-67301505D01*
X145900688Y-67069070D01*
X146026856Y-66765222D01*
X146027000Y-66600000D01*
X147375310Y-66600000D01*
X147375310Y-99260000D01*
X147442653Y-99598556D01*
X147634430Y-99885570D01*
X149384309Y-101635449D01*
X149061512Y-102412832D01*
X149060491Y-103582038D01*
X149506985Y-104662635D01*
X150333017Y-105490110D01*
X151412832Y-105938488D01*
X152582038Y-105939509D01*
X153662635Y-105493015D01*
X154490110Y-104666983D01*
X154938488Y-103587168D01*
X154939509Y-102417962D01*
X154493015Y-101337365D01*
X153666983Y-100509890D01*
X152587168Y-100061512D01*
X151417962Y-100060491D01*
X150635102Y-100383962D01*
X149144690Y-98893550D01*
X149144690Y-66763779D01*
X150372857Y-66763779D01*
X150498495Y-67067846D01*
X150730930Y-67300688D01*
X151034778Y-67426856D01*
X151363779Y-67427143D01*
X151667846Y-67301505D01*
X151900688Y-67069070D01*
X152026856Y-66765222D01*
X152026892Y-66722875D01*
X183456730Y-66722875D01*
X183820630Y-67215710D01*
X185217124Y-67804937D01*
X186732803Y-67814898D01*
X188136920Y-67244074D01*
X188179370Y-67215710D01*
X188543270Y-66722875D01*
X186000000Y-64179605D01*
X183456730Y-66722875D01*
X152026892Y-66722875D01*
X152027143Y-66436221D01*
X151901505Y-66132154D01*
X151669070Y-65899312D01*
X151365222Y-65773144D01*
X151036221Y-65772857D01*
X150732154Y-65898495D01*
X150499312Y-66130930D01*
X150373144Y-66434778D01*
X150372857Y-66763779D01*
X149144690Y-66763779D01*
X149144690Y-66600000D01*
X149077347Y-66261444D01*
X148885570Y-65974430D01*
X148598556Y-65782653D01*
X148260000Y-65715310D01*
X147921444Y-65782653D01*
X147634430Y-65974430D01*
X147442653Y-66261444D01*
X147375310Y-66600000D01*
X146027000Y-66600000D01*
X146027143Y-66436221D01*
X145901505Y-66132154D01*
X145669070Y-65899312D01*
X145365222Y-65773144D01*
X145036221Y-65772857D01*
X144732154Y-65898495D01*
X144499312Y-66130930D01*
X144373144Y-66434778D01*
X144372857Y-66763779D01*
X143402000Y-66763779D01*
X143402000Y-64732803D01*
X182185102Y-64732803D01*
X182755926Y-66136920D01*
X182784290Y-66179370D01*
X183277125Y-66543270D01*
X185820395Y-64000000D01*
X183277125Y-61456730D01*
X182784290Y-61820630D01*
X182195063Y-63217124D01*
X182185102Y-64732803D01*
X143402000Y-64732803D01*
X143402000Y-63963779D01*
X147372857Y-63963779D01*
X147498495Y-64267846D01*
X147730930Y-64500688D01*
X148034778Y-64626856D01*
X148363779Y-64627143D01*
X148667846Y-64501505D01*
X148900688Y-64269070D01*
X149026856Y-63965222D01*
X149027143Y-63636221D01*
X148901505Y-63332154D01*
X148669070Y-63099312D01*
X148365222Y-62973144D01*
X148036221Y-62972857D01*
X147732154Y-63098495D01*
X147499312Y-63330930D01*
X147373144Y-63634778D01*
X147372857Y-63963779D01*
X143402000Y-63963779D01*
X143402000Y-62039595D01*
X143530917Y-61391485D01*
X143875612Y-60875612D01*
X144391485Y-60530917D01*
X145039595Y-60402000D01*
X184733670Y-60402000D01*
X183863080Y-60755926D01*
X183820630Y-60784290D01*
X183456730Y-61277125D01*
X186000000Y-63820395D01*
X188543270Y-61277125D01*
X188179370Y-60784290D01*
X187273326Y-60402000D01*
X189598000Y-60402000D01*
X189598000Y-62733670D01*
X189244074Y-61863080D01*
X189215710Y-61820630D01*
X188722875Y-61456730D01*
X186179605Y-64000000D01*
X188722875Y-66543270D01*
X189215710Y-66179370D01*
X189598000Y-65273326D01*
X189598000Y-134733670D01*
X189244074Y-133863080D01*
X189215710Y-133820630D01*
X188722875Y-133456730D01*
X186179605Y-136000000D01*
X188722875Y-138543270D01*
X189215710Y-138179370D01*
X189598000Y-137273326D01*
X189598000Y-139598000D01*
X187266330Y-139598000D01*
X188136920Y-139244074D01*
X188179370Y-139215710D01*
X188543270Y-138722875D01*
X186000000Y-136179605D01*
X183456730Y-138722875D01*
X183820630Y-139215710D01*
X184726674Y-139598000D01*
X182039595Y-139598000D01*
X181391485Y-139469083D01*
X180875612Y-139124388D01*
X180530917Y-138608515D01*
X180402000Y-137960405D01*
X180402000Y-136732803D01*
X182185102Y-136732803D01*
X182755926Y-138136920D01*
X182784290Y-138179370D01*
X183277125Y-138543270D01*
X185820395Y-136000000D01*
X183277125Y-133456730D01*
X182784290Y-133820630D01*
X182195063Y-135217124D01*
X182185102Y-136732803D01*
X180402000Y-136732803D01*
X180402000Y-133277125D01*
X183456730Y-133277125D01*
X186000000Y-135820395D01*
X188543270Y-133277125D01*
X188179370Y-132784290D01*
X186782876Y-132195063D01*
X185267197Y-132185102D01*
X183863080Y-132755926D01*
X183820630Y-132784290D01*
X183456730Y-133277125D01*
X180402000Y-133277125D01*
X180402000Y-118000000D01*
X180394276Y-117961168D01*
X180394276Y-117921573D01*
X180242035Y-117156207D01*
X180182010Y-117011293D01*
X180182008Y-117011291D01*
X180127000Y-116928966D01*
X180127000Y-116000000D01*
X180116994Y-115950590D01*
X180088553Y-115908965D01*
X180046159Y-115881685D01*
X180000000Y-115873000D01*
X179071034Y-115873000D01*
X178988706Y-115817990D01*
X178843793Y-115757965D01*
X178308423Y-115651473D01*
X178514067Y-115514067D01*
X181451133Y-112577000D01*
X184799995Y-112577000D01*
X184800000Y-112577001D01*
X185020808Y-112533078D01*
X185208001Y-112408001D01*
X185234466Y-112381536D01*
X185354703Y-112331855D01*
X185531235Y-112155631D01*
X185626891Y-111925265D01*
X185627109Y-111675829D01*
X185531855Y-111445297D01*
X185355631Y-111268765D01*
X185125265Y-111173109D01*
X184875829Y-111172891D01*
X184645297Y-111268145D01*
X184490171Y-111423000D01*
X181727000Y-111423000D01*
X181727000Y-81624269D01*
X181727001Y-81624264D01*
X181671660Y-81346054D01*
X181671660Y-81346053D01*
X181514067Y-81110197D01*
X181514064Y-81110195D01*
X176089803Y-75685933D01*
X175853946Y-75528340D01*
X175575736Y-75472999D01*
X175297526Y-75528340D01*
X175061669Y-75685933D01*
X174904076Y-75921790D01*
X174848735Y-76200000D01*
X174904076Y-76478210D01*
X175061669Y-76714067D01*
X180273000Y-81925397D01*
X180273000Y-111698867D01*
X177698866Y-114273000D01*
X159000000Y-114273000D01*
X158721789Y-114328340D01*
X158485933Y-114485933D01*
X156485933Y-116485933D01*
X156328340Y-116721789D01*
X156328340Y-116721790D01*
X156272999Y-117000000D01*
X156273000Y-117000005D01*
X156273000Y-124098867D01*
X152898866Y-127473000D01*
X147701134Y-127473000D01*
X145914067Y-125685933D01*
X145678210Y-125528340D01*
X145400000Y-125472999D01*
X145121790Y-125528340D01*
X144885933Y-125685933D01*
X144728340Y-125921790D01*
X144672999Y-126200000D01*
X144728340Y-126478210D01*
X144885933Y-126714067D01*
X146885933Y-128714067D01*
X147121789Y-128871660D01*
X147400000Y-128927000D01*
X153199995Y-128927000D01*
X153200000Y-128927001D01*
X153432052Y-128880842D01*
X153478211Y-128871660D01*
X153714067Y-128714067D01*
X157514064Y-124914069D01*
X157514067Y-124914067D01*
X157598000Y-124788452D01*
X157598000Y-137960405D01*
X157469083Y-138608515D01*
X157124388Y-139124388D01*
X156608515Y-139469083D01*
X155960405Y-139598000D01*
X115266330Y-139598000D01*
X116136920Y-139244074D01*
X116179370Y-139215710D01*
X116543270Y-138722875D01*
X114000000Y-136179605D01*
X111456730Y-138722875D01*
X111820630Y-139215710D01*
X112726674Y-139598000D01*
X110402000Y-139598000D01*
X110402000Y-137266330D01*
X110755926Y-138136920D01*
X110784290Y-138179370D01*
X111277125Y-138543270D01*
X113820395Y-136000000D01*
X114179605Y-136000000D01*
X116722875Y-138543270D01*
X117215710Y-138179370D01*
X117535450Y-137421572D01*
X144105724Y-137421572D01*
X144105724Y-137578426D01*
X144143784Y-137769768D01*
X144143784Y-137769770D01*
X144170494Y-137834252D01*
X144203809Y-137914682D01*
X144203810Y-137914683D01*
X144312197Y-138076894D01*
X144367652Y-138132348D01*
X144423106Y-138187803D01*
X144585317Y-138296190D01*
X144585319Y-138296191D01*
X144610180Y-138306489D01*
X144730230Y-138356216D01*
X144730232Y-138356216D01*
X144921575Y-138394276D01*
X144961168Y-138394276D01*
X145000000Y-138402000D01*
X155000000Y-138402000D01*
X155038832Y-138394276D01*
X155078426Y-138394276D01*
X155269768Y-138356216D01*
X155269770Y-138356216D01*
X155354658Y-138321054D01*
X155414682Y-138296191D01*
X155414683Y-138296190D01*
X155576894Y-138187803D01*
X155632348Y-138132348D01*
X155687803Y-138076894D01*
X155796190Y-137914683D01*
X155856216Y-137769770D01*
X155856216Y-137769768D01*
X155894276Y-137578425D01*
X155894276Y-137421573D01*
X155894275Y-137421571D01*
X155856216Y-137230232D01*
X155856216Y-137230230D01*
X155796190Y-137085317D01*
X155687803Y-136923106D01*
X155632348Y-136867652D01*
X155576894Y-136812197D01*
X155414683Y-136703810D01*
X155414682Y-136703809D01*
X155322797Y-136665749D01*
X155269770Y-136643784D01*
X155269768Y-136643784D01*
X155078426Y-136605724D01*
X155038832Y-136605724D01*
X155000000Y-136598000D01*
X145000000Y-136598000D01*
X144961168Y-136605724D01*
X144921575Y-136605724D01*
X144730232Y-136643784D01*
X144730230Y-136643784D01*
X144610180Y-136693511D01*
X144585322Y-136703808D01*
X144585317Y-136703810D01*
X144423106Y-136812197D01*
X144367652Y-136867652D01*
X144312197Y-136923106D01*
X144203810Y-137085317D01*
X144203809Y-137085318D01*
X144190899Y-137116486D01*
X144143784Y-137230230D01*
X144143784Y-137230232D01*
X144105724Y-137421572D01*
X117535450Y-137421572D01*
X117804937Y-136782876D01*
X117814898Y-135267197D01*
X117244074Y-133863080D01*
X117215710Y-133820630D01*
X116722875Y-133456730D01*
X114179605Y-136000000D01*
X113820395Y-136000000D01*
X111277125Y-133456730D01*
X110784290Y-133820630D01*
X110402000Y-134726674D01*
X110402000Y-133277125D01*
X111456730Y-133277125D01*
X114000000Y-135820395D01*
X116543270Y-133277125D01*
X116459578Y-133163779D01*
X143172857Y-133163779D01*
X143298495Y-133467846D01*
X143530930Y-133700688D01*
X143834778Y-133826856D01*
X144163779Y-133827143D01*
X144467846Y-133701505D01*
X144700688Y-133469070D01*
X144826856Y-133165222D01*
X144826857Y-133163779D01*
X155172857Y-133163779D01*
X155298495Y-133467846D01*
X155530930Y-133700688D01*
X155834778Y-133826856D01*
X156163779Y-133827143D01*
X156467846Y-133701505D01*
X156700688Y-133469070D01*
X156826856Y-133165222D01*
X156827143Y-132836221D01*
X156701505Y-132532154D01*
X156469070Y-132299312D01*
X156165222Y-132173144D01*
X155836221Y-132172857D01*
X155532154Y-132298495D01*
X155299312Y-132530930D01*
X155173144Y-132834778D01*
X155172857Y-133163779D01*
X144826857Y-133163779D01*
X144827143Y-132836221D01*
X144701505Y-132532154D01*
X144469070Y-132299312D01*
X144165222Y-132173144D01*
X143836221Y-132172857D01*
X143532154Y-132298495D01*
X143299312Y-132530930D01*
X143173144Y-132834778D01*
X143172857Y-133163779D01*
X116459578Y-133163779D01*
X116179370Y-132784290D01*
X114782876Y-132195063D01*
X113267197Y-132185102D01*
X111863080Y-132755926D01*
X111820630Y-132784290D01*
X111456730Y-133277125D01*
X110402000Y-133277125D01*
X110402000Y-125924171D01*
X131172891Y-125924171D01*
X131268145Y-126154703D01*
X131444369Y-126331235D01*
X131674735Y-126426891D01*
X131924171Y-126427109D01*
X132154703Y-126331855D01*
X132331235Y-126155631D01*
X132363885Y-126077001D01*
X137899994Y-126077001D01*
X137899999Y-126077002D01*
X138120807Y-126033079D01*
X138308000Y-125908002D01*
X142972962Y-121243039D01*
X142972891Y-121324171D01*
X143068145Y-121554703D01*
X143244369Y-121731235D01*
X143474735Y-121826891D01*
X143724171Y-121827109D01*
X143954703Y-121731855D01*
X144131235Y-121555631D01*
X144181555Y-121434447D01*
X144239001Y-121377000D01*
X150954584Y-121377000D01*
X151074735Y-121426891D01*
X151324171Y-121427109D01*
X151554703Y-121331855D01*
X151731235Y-121155631D01*
X151826891Y-120925265D01*
X151826963Y-120842964D01*
X152018463Y-121034465D01*
X152068145Y-121154703D01*
X152244369Y-121331235D01*
X152474735Y-121426891D01*
X152724171Y-121427109D01*
X152954703Y-121331855D01*
X153131235Y-121155631D01*
X153226891Y-120925265D01*
X153227109Y-120675829D01*
X153131855Y-120445297D01*
X152955631Y-120268765D01*
X152834446Y-120218445D01*
X152193002Y-119577000D01*
X153360998Y-119577000D01*
X154818463Y-121034464D01*
X154868145Y-121154703D01*
X155044369Y-121331235D01*
X155274735Y-121426891D01*
X155524171Y-121427109D01*
X155754703Y-121331855D01*
X155931235Y-121155631D01*
X156026891Y-120925265D01*
X156027109Y-120675829D01*
X155931855Y-120445297D01*
X155755631Y-120268765D01*
X155634446Y-120218445D01*
X154008001Y-118591999D01*
X153820808Y-118466922D01*
X153600000Y-118422999D01*
X153599995Y-118423000D01*
X149245416Y-118423000D01*
X149125265Y-118373109D01*
X148875829Y-118372891D01*
X148754556Y-118423000D01*
X144400005Y-118423000D01*
X144400000Y-118422999D01*
X144179192Y-118466922D01*
X143991999Y-118591999D01*
X143991997Y-118592002D01*
X137660997Y-124923001D01*
X132100004Y-124923001D01*
X132099999Y-124923000D01*
X131879191Y-124966923D01*
X131691998Y-125092000D01*
X131691996Y-125092003D01*
X131565535Y-125218464D01*
X131445297Y-125268145D01*
X131268765Y-125444369D01*
X131173109Y-125674735D01*
X131172891Y-125924171D01*
X110402000Y-125924171D01*
X110402000Y-106124171D01*
X112372891Y-106124171D01*
X112468145Y-106354703D01*
X112644369Y-106531235D01*
X112765553Y-106581555D01*
X114418464Y-108234466D01*
X114468145Y-108354703D01*
X114644369Y-108531235D01*
X114874735Y-108626891D01*
X115124171Y-108627109D01*
X115354703Y-108531855D01*
X115531235Y-108355631D01*
X115626891Y-108125265D01*
X115627109Y-107875829D01*
X115531855Y-107645297D01*
X115355631Y-107468765D01*
X115234447Y-107418445D01*
X113581536Y-105765534D01*
X113531855Y-105645297D01*
X113355631Y-105468765D01*
X113125265Y-105373109D01*
X112875829Y-105372891D01*
X112645297Y-105468145D01*
X112468765Y-105644369D01*
X112373109Y-105874735D01*
X112372891Y-106124171D01*
X110402000Y-106124171D01*
X110402000Y-66722875D01*
X111456730Y-66722875D01*
X111820630Y-67215710D01*
X113217124Y-67804937D01*
X114732803Y-67814898D01*
X116136920Y-67244074D01*
X116179370Y-67215710D01*
X116543270Y-66722875D01*
X114000000Y-64179605D01*
X111456730Y-66722875D01*
X110402000Y-66722875D01*
X110402000Y-65266330D01*
X110755926Y-66136920D01*
X110784290Y-66179370D01*
X111277125Y-66543270D01*
X113820395Y-64000000D01*
X114179605Y-64000000D01*
X116722875Y-66543270D01*
X117215710Y-66179370D01*
X117804937Y-64782876D01*
X117814898Y-63267197D01*
X117244074Y-61863080D01*
X117215710Y-61820630D01*
X116722875Y-61456730D01*
X114179605Y-64000000D01*
X113820395Y-64000000D01*
X111277125Y-61456730D01*
X110784290Y-61820630D01*
X110402000Y-62726674D01*
X110402000Y-60402000D01*
X112733670Y-60402000D01*
X111863080Y-60755926D01*
X111863080Y-60755926D01*
G37*
X111863080Y-60755926D02*
X111820630Y-60784290D01*
X111456730Y-61277125D01*
X114000000Y-63820395D01*
X116543270Y-61277125D01*
X116179370Y-60784290D01*
X115273326Y-60402000D01*
X117960405Y-60402000D01*
X118608515Y-60530917D01*
X119124388Y-60875612D01*
X119469083Y-61391485D01*
X119598000Y-62039595D01*
X119598000Y-85000000D01*
X119605724Y-85038832D01*
X119605724Y-85078426D01*
X119757965Y-85843793D01*
X119817990Y-85988706D01*
X119873000Y-86071034D01*
X119873000Y-87000000D01*
X119883006Y-87049410D01*
X119911447Y-87091035D01*
X119953841Y-87118315D01*
X120000000Y-87127000D01*
X120928966Y-87127000D01*
X121011291Y-87182008D01*
X121011293Y-87182010D01*
X121156207Y-87242035D01*
X121921573Y-87394276D01*
X121961168Y-87394276D01*
X122000000Y-87402000D01*
X141000000Y-87402000D01*
X141038832Y-87394276D01*
X141078426Y-87394276D01*
X141843793Y-87242035D01*
X141988706Y-87182010D01*
X142071034Y-87127000D01*
X143000000Y-87127000D01*
X143049410Y-87116994D01*
X143091035Y-87088553D01*
X143118315Y-87046159D01*
X143127000Y-87000000D01*
X143127000Y-86071034D01*
X143182008Y-85988709D01*
X143182010Y-85988707D01*
X143242035Y-85843793D01*
X143394276Y-85078427D01*
X143394276Y-85038832D01*
X143402000Y-85000000D01*
X143402000Y-66763779D01*
X144372857Y-66763779D01*
X144498495Y-67067846D01*
X144730930Y-67300688D01*
X145034778Y-67426856D01*
X145363779Y-67427143D01*
X145667846Y-67301505D01*
X145900688Y-67069070D01*
X146026856Y-66765222D01*
X146027000Y-66600000D01*
X147375310Y-66600000D01*
X147375310Y-99260000D01*
X147442653Y-99598556D01*
X147634430Y-99885570D01*
X149384309Y-101635449D01*
X149061512Y-102412832D01*
X149060491Y-103582038D01*
X149506985Y-104662635D01*
X150333017Y-105490110D01*
X151412832Y-105938488D01*
X152582038Y-105939509D01*
X153662635Y-105493015D01*
X154490110Y-104666983D01*
X154938488Y-103587168D01*
X154939509Y-102417962D01*
X154493015Y-101337365D01*
X153666983Y-100509890D01*
X152587168Y-100061512D01*
X151417962Y-100060491D01*
X150635102Y-100383962D01*
X149144690Y-98893550D01*
X149144690Y-66763779D01*
X150372857Y-66763779D01*
X150498495Y-67067846D01*
X150730930Y-67300688D01*
X151034778Y-67426856D01*
X151363779Y-67427143D01*
X151667846Y-67301505D01*
X151900688Y-67069070D01*
X152026856Y-66765222D01*
X152026892Y-66722875D01*
X183456730Y-66722875D01*
X183820630Y-67215710D01*
X185217124Y-67804937D01*
X186732803Y-67814898D01*
X188136920Y-67244074D01*
X188179370Y-67215710D01*
X188543270Y-66722875D01*
X186000000Y-64179605D01*
X183456730Y-66722875D01*
X152026892Y-66722875D01*
X152027143Y-66436221D01*
X151901505Y-66132154D01*
X151669070Y-65899312D01*
X151365222Y-65773144D01*
X151036221Y-65772857D01*
X150732154Y-65898495D01*
X150499312Y-66130930D01*
X150373144Y-66434778D01*
X150372857Y-66763779D01*
X149144690Y-66763779D01*
X149144690Y-66600000D01*
X149077347Y-66261444D01*
X148885570Y-65974430D01*
X148598556Y-65782653D01*
X148260000Y-65715310D01*
X147921444Y-65782653D01*
X147634430Y-65974430D01*
X147442653Y-66261444D01*
X147375310Y-66600000D01*
X146027000Y-66600000D01*
X146027143Y-66436221D01*
X145901505Y-66132154D01*
X145669070Y-65899312D01*
X145365222Y-65773144D01*
X145036221Y-65772857D01*
X144732154Y-65898495D01*
X144499312Y-66130930D01*
X144373144Y-66434778D01*
X144372857Y-66763779D01*
X143402000Y-66763779D01*
X143402000Y-64732803D01*
X182185102Y-64732803D01*
X182755926Y-66136920D01*
X182784290Y-66179370D01*
X183277125Y-66543270D01*
X185820395Y-64000000D01*
X183277125Y-61456730D01*
X182784290Y-61820630D01*
X182195063Y-63217124D01*
X182185102Y-64732803D01*
X143402000Y-64732803D01*
X143402000Y-63963779D01*
X147372857Y-63963779D01*
X147498495Y-64267846D01*
X147730930Y-64500688D01*
X148034778Y-64626856D01*
X148363779Y-64627143D01*
X148667846Y-64501505D01*
X148900688Y-64269070D01*
X149026856Y-63965222D01*
X149027143Y-63636221D01*
X148901505Y-63332154D01*
X148669070Y-63099312D01*
X148365222Y-62973144D01*
X148036221Y-62972857D01*
X147732154Y-63098495D01*
X147499312Y-63330930D01*
X147373144Y-63634778D01*
X147372857Y-63963779D01*
X143402000Y-63963779D01*
X143402000Y-62039595D01*
X143530917Y-61391485D01*
X143875612Y-60875612D01*
X144391485Y-60530917D01*
X145039595Y-60402000D01*
X184733670Y-60402000D01*
X183863080Y-60755926D01*
X183820630Y-60784290D01*
X183456730Y-61277125D01*
X186000000Y-63820395D01*
X188543270Y-61277125D01*
X188179370Y-60784290D01*
X187273326Y-60402000D01*
X189598000Y-60402000D01*
X189598000Y-62733670D01*
X189244074Y-61863080D01*
X189215710Y-61820630D01*
X188722875Y-61456730D01*
X186179605Y-64000000D01*
X188722875Y-66543270D01*
X189215710Y-66179370D01*
X189598000Y-65273326D01*
X189598000Y-134733670D01*
X189244074Y-133863080D01*
X189215710Y-133820630D01*
X188722875Y-133456730D01*
X186179605Y-136000000D01*
X188722875Y-138543270D01*
X189215710Y-138179370D01*
X189598000Y-137273326D01*
X189598000Y-139598000D01*
X187266330Y-139598000D01*
X188136920Y-139244074D01*
X188179370Y-139215710D01*
X188543270Y-138722875D01*
X186000000Y-136179605D01*
X183456730Y-138722875D01*
X183820630Y-139215710D01*
X184726674Y-139598000D01*
X182039595Y-139598000D01*
X181391485Y-139469083D01*
X180875612Y-139124388D01*
X180530917Y-138608515D01*
X180402000Y-137960405D01*
X180402000Y-136732803D01*
X182185102Y-136732803D01*
X182755926Y-138136920D01*
X182784290Y-138179370D01*
X183277125Y-138543270D01*
X185820395Y-136000000D01*
X183277125Y-133456730D01*
X182784290Y-133820630D01*
X182195063Y-135217124D01*
X182185102Y-136732803D01*
X180402000Y-136732803D01*
X180402000Y-133277125D01*
X183456730Y-133277125D01*
X186000000Y-135820395D01*
X188543270Y-133277125D01*
X188179370Y-132784290D01*
X186782876Y-132195063D01*
X185267197Y-132185102D01*
X183863080Y-132755926D01*
X183820630Y-132784290D01*
X183456730Y-133277125D01*
X180402000Y-133277125D01*
X180402000Y-118000000D01*
X180394276Y-117961168D01*
X180394276Y-117921573D01*
X180242035Y-117156207D01*
X180182010Y-117011293D01*
X180182008Y-117011291D01*
X180127000Y-116928966D01*
X180127000Y-116000000D01*
X180116994Y-115950590D01*
X180088553Y-115908965D01*
X180046159Y-115881685D01*
X180000000Y-115873000D01*
X179071034Y-115873000D01*
X178988706Y-115817990D01*
X178843793Y-115757965D01*
X178308423Y-115651473D01*
X178514067Y-115514067D01*
X181451133Y-112577000D01*
X184799995Y-112577000D01*
X184800000Y-112577001D01*
X185020808Y-112533078D01*
X185208001Y-112408001D01*
X185234466Y-112381536D01*
X185354703Y-112331855D01*
X185531235Y-112155631D01*
X185626891Y-111925265D01*
X185627109Y-111675829D01*
X185531855Y-111445297D01*
X185355631Y-111268765D01*
X185125265Y-111173109D01*
X184875829Y-111172891D01*
X184645297Y-111268145D01*
X184490171Y-111423000D01*
X181727000Y-111423000D01*
X181727000Y-81624269D01*
X181727001Y-81624264D01*
X181671660Y-81346054D01*
X181671660Y-81346053D01*
X181514067Y-81110197D01*
X181514064Y-81110195D01*
X176089803Y-75685933D01*
X175853946Y-75528340D01*
X175575736Y-75472999D01*
X175297526Y-75528340D01*
X175061669Y-75685933D01*
X174904076Y-75921790D01*
X174848735Y-76200000D01*
X174904076Y-76478210D01*
X175061669Y-76714067D01*
X180273000Y-81925397D01*
X180273000Y-111698867D01*
X177698866Y-114273000D01*
X159000000Y-114273000D01*
X158721789Y-114328340D01*
X158485933Y-114485933D01*
X156485933Y-116485933D01*
X156328340Y-116721789D01*
X156328340Y-116721790D01*
X156272999Y-117000000D01*
X156273000Y-117000005D01*
X156273000Y-124098867D01*
X152898866Y-127473000D01*
X147701134Y-127473000D01*
X145914067Y-125685933D01*
X145678210Y-125528340D01*
X145400000Y-125472999D01*
X145121790Y-125528340D01*
X144885933Y-125685933D01*
X144728340Y-125921790D01*
X144672999Y-126200000D01*
X144728340Y-126478210D01*
X144885933Y-126714067D01*
X146885933Y-128714067D01*
X147121789Y-128871660D01*
X147400000Y-128927000D01*
X153199995Y-128927000D01*
X153200000Y-128927001D01*
X153432052Y-128880842D01*
X153478211Y-128871660D01*
X153714067Y-128714067D01*
X157514064Y-124914069D01*
X157514067Y-124914067D01*
X157598000Y-124788452D01*
X157598000Y-137960405D01*
X157469083Y-138608515D01*
X157124388Y-139124388D01*
X156608515Y-139469083D01*
X155960405Y-139598000D01*
X115266330Y-139598000D01*
X116136920Y-139244074D01*
X116179370Y-139215710D01*
X116543270Y-138722875D01*
X114000000Y-136179605D01*
X111456730Y-138722875D01*
X111820630Y-139215710D01*
X112726674Y-139598000D01*
X110402000Y-139598000D01*
X110402000Y-137266330D01*
X110755926Y-138136920D01*
X110784290Y-138179370D01*
X111277125Y-138543270D01*
X113820395Y-136000000D01*
X114179605Y-136000000D01*
X116722875Y-138543270D01*
X117215710Y-138179370D01*
X117535450Y-137421572D01*
X144105724Y-137421572D01*
X144105724Y-137578426D01*
X144143784Y-137769768D01*
X144143784Y-137769770D01*
X144170494Y-137834252D01*
X144203809Y-137914682D01*
X144203810Y-137914683D01*
X144312197Y-138076894D01*
X144367652Y-138132348D01*
X144423106Y-138187803D01*
X144585317Y-138296190D01*
X144585319Y-138296191D01*
X144610180Y-138306489D01*
X144730230Y-138356216D01*
X144730232Y-138356216D01*
X144921575Y-138394276D01*
X144961168Y-138394276D01*
X145000000Y-138402000D01*
X155000000Y-138402000D01*
X155038832Y-138394276D01*
X155078426Y-138394276D01*
X155269768Y-138356216D01*
X155269770Y-138356216D01*
X155354658Y-138321054D01*
X155414682Y-138296191D01*
X155414683Y-138296190D01*
X155576894Y-138187803D01*
X155632348Y-138132348D01*
X155687803Y-138076894D01*
X155796190Y-137914683D01*
X155856216Y-137769770D01*
X155856216Y-137769768D01*
X155894276Y-137578425D01*
X155894276Y-137421573D01*
X155894275Y-137421571D01*
X155856216Y-137230232D01*
X155856216Y-137230230D01*
X155796190Y-137085317D01*
X155687803Y-136923106D01*
X155632348Y-136867652D01*
X155576894Y-136812197D01*
X155414683Y-136703810D01*
X155414682Y-136703809D01*
X155322797Y-136665749D01*
X155269770Y-136643784D01*
X155269768Y-136643784D01*
X155078426Y-136605724D01*
X155038832Y-136605724D01*
X155000000Y-136598000D01*
X145000000Y-136598000D01*
X144961168Y-136605724D01*
X144921575Y-136605724D01*
X144730232Y-136643784D01*
X144730230Y-136643784D01*
X144610180Y-136693511D01*
X144585322Y-136703808D01*
X144585317Y-136703810D01*
X144423106Y-136812197D01*
X144367652Y-136867652D01*
X144312197Y-136923106D01*
X144203810Y-137085317D01*
X144203809Y-137085318D01*
X144190899Y-137116486D01*
X144143784Y-137230230D01*
X144143784Y-137230232D01*
X144105724Y-137421572D01*
X117535450Y-137421572D01*
X117804937Y-136782876D01*
X117814898Y-135267197D01*
X117244074Y-133863080D01*
X117215710Y-133820630D01*
X116722875Y-133456730D01*
X114179605Y-136000000D01*
X113820395Y-136000000D01*
X111277125Y-133456730D01*
X110784290Y-133820630D01*
X110402000Y-134726674D01*
X110402000Y-133277125D01*
X111456730Y-133277125D01*
X114000000Y-135820395D01*
X116543270Y-133277125D01*
X116459578Y-133163779D01*
X143172857Y-133163779D01*
X143298495Y-133467846D01*
X143530930Y-133700688D01*
X143834778Y-133826856D01*
X144163779Y-133827143D01*
X144467846Y-133701505D01*
X144700688Y-133469070D01*
X144826856Y-133165222D01*
X144826857Y-133163779D01*
X155172857Y-133163779D01*
X155298495Y-133467846D01*
X155530930Y-133700688D01*
X155834778Y-133826856D01*
X156163779Y-133827143D01*
X156467846Y-133701505D01*
X156700688Y-133469070D01*
X156826856Y-133165222D01*
X156827143Y-132836221D01*
X156701505Y-132532154D01*
X156469070Y-132299312D01*
X156165222Y-132173144D01*
X155836221Y-132172857D01*
X155532154Y-132298495D01*
X155299312Y-132530930D01*
X155173144Y-132834778D01*
X155172857Y-133163779D01*
X144826857Y-133163779D01*
X144827143Y-132836221D01*
X144701505Y-132532154D01*
X144469070Y-132299312D01*
X144165222Y-132173144D01*
X143836221Y-132172857D01*
X143532154Y-132298495D01*
X143299312Y-132530930D01*
X143173144Y-132834778D01*
X143172857Y-133163779D01*
X116459578Y-133163779D01*
X116179370Y-132784290D01*
X114782876Y-132195063D01*
X113267197Y-132185102D01*
X111863080Y-132755926D01*
X111820630Y-132784290D01*
X111456730Y-133277125D01*
X110402000Y-133277125D01*
X110402000Y-125924171D01*
X131172891Y-125924171D01*
X131268145Y-126154703D01*
X131444369Y-126331235D01*
X131674735Y-126426891D01*
X131924171Y-126427109D01*
X132154703Y-126331855D01*
X132331235Y-126155631D01*
X132363885Y-126077001D01*
X137899994Y-126077001D01*
X137899999Y-126077002D01*
X138120807Y-126033079D01*
X138308000Y-125908002D01*
X142972962Y-121243039D01*
X142972891Y-121324171D01*
X143068145Y-121554703D01*
X143244369Y-121731235D01*
X143474735Y-121826891D01*
X143724171Y-121827109D01*
X143954703Y-121731855D01*
X144131235Y-121555631D01*
X144181555Y-121434447D01*
X144239001Y-121377000D01*
X150954584Y-121377000D01*
X151074735Y-121426891D01*
X151324171Y-121427109D01*
X151554703Y-121331855D01*
X151731235Y-121155631D01*
X151826891Y-120925265D01*
X151826963Y-120842964D01*
X152018463Y-121034465D01*
X152068145Y-121154703D01*
X152244369Y-121331235D01*
X152474735Y-121426891D01*
X152724171Y-121427109D01*
X152954703Y-121331855D01*
X153131235Y-121155631D01*
X153226891Y-120925265D01*
X153227109Y-120675829D01*
X153131855Y-120445297D01*
X152955631Y-120268765D01*
X152834446Y-120218445D01*
X152193002Y-119577000D01*
X153360998Y-119577000D01*
X154818463Y-121034464D01*
X154868145Y-121154703D01*
X155044369Y-121331235D01*
X155274735Y-121426891D01*
X155524171Y-121427109D01*
X155754703Y-121331855D01*
X155931235Y-121155631D01*
X156026891Y-120925265D01*
X156027109Y-120675829D01*
X155931855Y-120445297D01*
X155755631Y-120268765D01*
X155634446Y-120218445D01*
X154008001Y-118591999D01*
X153820808Y-118466922D01*
X153600000Y-118422999D01*
X153599995Y-118423000D01*
X149245416Y-118423000D01*
X149125265Y-118373109D01*
X148875829Y-118372891D01*
X148754556Y-118423000D01*
X144400005Y-118423000D01*
X144400000Y-118422999D01*
X144179192Y-118466922D01*
X143991999Y-118591999D01*
X143991997Y-118592002D01*
X137660997Y-124923001D01*
X132100004Y-124923001D01*
X132099999Y-124923000D01*
X131879191Y-124966923D01*
X131691998Y-125092000D01*
X131691996Y-125092003D01*
X131565535Y-125218464D01*
X131445297Y-125268145D01*
X131268765Y-125444369D01*
X131173109Y-125674735D01*
X131172891Y-125924171D01*
X110402000Y-125924171D01*
X110402000Y-106124171D01*
X112372891Y-106124171D01*
X112468145Y-106354703D01*
X112644369Y-106531235D01*
X112765553Y-106581555D01*
X114418464Y-108234466D01*
X114468145Y-108354703D01*
X114644369Y-108531235D01*
X114874735Y-108626891D01*
X115124171Y-108627109D01*
X115354703Y-108531855D01*
X115531235Y-108355631D01*
X115626891Y-108125265D01*
X115627109Y-107875829D01*
X115531855Y-107645297D01*
X115355631Y-107468765D01*
X115234447Y-107418445D01*
X113581536Y-105765534D01*
X113531855Y-105645297D01*
X113355631Y-105468765D01*
X113125265Y-105373109D01*
X112875829Y-105372891D01*
X112645297Y-105468145D01*
X112468765Y-105644369D01*
X112373109Y-105874735D01*
X112372891Y-106124171D01*
X110402000Y-106124171D01*
X110402000Y-66722875D01*
X111456730Y-66722875D01*
X111820630Y-67215710D01*
X113217124Y-67804937D01*
X114732803Y-67814898D01*
X116136920Y-67244074D01*
X116179370Y-67215710D01*
X116543270Y-66722875D01*
X114000000Y-64179605D01*
X111456730Y-66722875D01*
X110402000Y-66722875D01*
X110402000Y-65266330D01*
X110755926Y-66136920D01*
X110784290Y-66179370D01*
X111277125Y-66543270D01*
X113820395Y-64000000D01*
X114179605Y-64000000D01*
X116722875Y-66543270D01*
X117215710Y-66179370D01*
X117804937Y-64782876D01*
X117814898Y-63267197D01*
X117244074Y-61863080D01*
X117215710Y-61820630D01*
X116722875Y-61456730D01*
X114179605Y-64000000D01*
X113820395Y-64000000D01*
X111277125Y-61456730D01*
X110784290Y-61820630D01*
X110402000Y-62726674D01*
X110402000Y-60402000D01*
X112733670Y-60402000D01*
X111863080Y-60755926D01*
M02*
