M48
;DRILL file {KiCad 4.0.7-e2-6376~58~ubuntu16.04.1} date Mon Apr 23 10:52:04 2018
;FORMAT={-:-/ absolute / inch / decimal}
FMAT,2
INCH,TZ
T1C0.016
T2C0.037
T3C0.040
T4C0.125
%
G90
G05
M72
T1
X4.3622Y-3.4646
X4.4409Y-3.2835
X4.4488Y-4.1732
X4.4961Y-3.
X4.4961Y-4.9843
X4.5276Y-4.252
X4.5669Y-4.9764
X4.6929Y-4.937
X4.874Y-5.0236
X5.189Y-4.9528
X5.6535Y-4.7717
X5.7087Y-5.1102
X5.7244Y-4.9685
X5.748Y-4.7165
X5.7874Y-4.9449
X5.8661Y-4.685
X5.9055Y-4.9606
X5.9528Y-4.7559
X6.0079Y-4.7559
X6.0157Y-4.9449
X6.0315Y-5.0472
X6.1024Y-5.1024
X6.1181Y-4.7559
X6.9124Y-3.
X6.9291Y-2.8661
X7.0551Y-4.3622
X7.1102Y-2.9449
X7.2362Y-2.9134
X7.2835Y-4.4016
X7.315Y-2.9055
X7.3228Y-4.5669
X7.3307Y-4.8819
X7.4016Y-4.3858
T2
X5.9843Y-4.0551
T3
X5.748Y-2.622
X5.837Y-2.622
X5.9252Y-2.622
T4
X4.4882Y-2.5197
X4.4882Y-5.3543
X7.3228Y-2.5197
X7.3228Y-5.3543
T0
M30
