G04 #@! TF.FileFunction,Profile,NP*
%FSLAX46Y46*%
G04 Gerber Fmt 4.6, Leading zero omitted, Abs format (unit mm)*
G04 Created by KiCad (PCBNEW 4.0.7-e2-6376~58~ubuntu16.04.1) date Thu Mar 22 00:24:48 2018*
%MOMM*%
%LPD*%
G01*
G04 APERTURE LIST*
%ADD10C,0.100000*%
%ADD11C,0.150000*%
G04 APERTURE END LIST*
D10*
D11*
X160000000Y-116000000D02*
X178000000Y-116000000D01*
X180000000Y-118000000D02*
G75*
G03X178000000Y-116000000I-2000000J0D01*
G01*
X160000000Y-116000000D02*
G75*
G03X158000000Y-118000000I0J-2000000D01*
G01*
X156000000Y-140000000D02*
X110000000Y-140000000D01*
X190000000Y-140000000D02*
X182000000Y-140000000D01*
X180000000Y-138000000D02*
G75*
G03X182000000Y-140000000I2000000J0D01*
G01*
X156000000Y-140000000D02*
G75*
G03X158000000Y-138000000I0J2000000D01*
G01*
X180000000Y-118000000D02*
X180000000Y-138000000D01*
X158000000Y-118000000D02*
X158000000Y-138000000D01*
X145000000Y-60000000D02*
X190000000Y-60000000D01*
X110000000Y-60000000D02*
X118000000Y-60000000D01*
X145000000Y-60000000D02*
G75*
G03X143000000Y-62000000I0J-2000000D01*
G01*
X141000000Y-87000000D02*
G75*
G03X143000000Y-85000000I0J2000000D01*
G01*
X120000000Y-85000000D02*
G75*
G03X122000000Y-87000000I2000000J0D01*
G01*
X120000000Y-62000000D02*
G75*
G03X118000000Y-60000000I-2000000J0D01*
G01*
X122000000Y-87000000D02*
X129000000Y-87000000D01*
X120000000Y-62000000D02*
X120000000Y-85000000D01*
X141000000Y-87000000D02*
X129000000Y-87000000D01*
X143000000Y-62000000D02*
X143000000Y-85000000D01*
X145000000Y-137000000D02*
G75*
G03X145000000Y-138000000I0J-500000D01*
G01*
X155000000Y-138000000D02*
G75*
G03X155000000Y-137000000I0J500000D01*
G01*
X145000000Y-137000000D02*
X155000000Y-137000000D01*
X145000000Y-138000000D02*
X155000000Y-138000000D01*
X190000000Y-60000000D02*
X190000000Y-140000000D01*
X110000000Y-60000000D02*
X110000000Y-140000000D01*
M02*
